G75*
%MOIN*%
%OFA0B0*%
%FSLAX24Y24*%
%IPPOS*%
%LPD*%
%AMOC8*
5,1,8,0,0,1.08239X$1,22.5*
%
%ADD10C,0.0000*%
%ADD11C,0.0030*%
%ADD12C,0.0020*%
%ADD13C,0.0060*%
%ADD14C,0.0050*%
%ADD15C,0.0070*%
%ADD16C,0.0080*%
%ADD17C,0.0100*%
D10*
X000175Y002125D02*
X000175Y023125D01*
X021175Y023125D01*
X021175Y002750D01*
X020550Y002125D01*
X016050Y002125D01*
X015050Y001125D01*
X002175Y001125D01*
X001175Y002125D01*
X000175Y002125D01*
D11*
X002168Y006265D02*
X002120Y006313D01*
X002120Y006410D01*
X002168Y006458D01*
X002120Y006560D02*
X002120Y006753D01*
X002168Y006753D01*
X002362Y006560D01*
X002410Y006560D01*
X002362Y006458D02*
X002410Y006410D01*
X002410Y006313D01*
X002362Y006265D01*
X002168Y006265D01*
X002168Y007265D02*
X002120Y007313D01*
X002120Y007410D01*
X002168Y007458D01*
X002265Y007560D02*
X002265Y007705D01*
X002313Y007753D01*
X002362Y007753D01*
X002410Y007705D01*
X002410Y007608D01*
X002362Y007560D01*
X002265Y007560D01*
X002168Y007656D01*
X002120Y007753D01*
X002362Y007458D02*
X002410Y007410D01*
X002410Y007313D01*
X002362Y007265D01*
X002168Y007265D01*
X002168Y008265D02*
X002120Y008313D01*
X002120Y008410D01*
X002168Y008458D01*
X002120Y008560D02*
X002265Y008560D01*
X002217Y008656D01*
X002217Y008705D01*
X002265Y008753D01*
X002362Y008753D01*
X002410Y008705D01*
X002410Y008608D01*
X002362Y008560D01*
X002362Y008458D02*
X002410Y008410D01*
X002410Y008313D01*
X002362Y008265D01*
X002168Y008265D01*
X002120Y008560D02*
X002120Y008753D01*
X002168Y009265D02*
X002120Y009313D01*
X002120Y009410D01*
X002168Y009458D01*
X002265Y009560D02*
X002265Y009753D01*
X002410Y009705D02*
X002120Y009705D01*
X002265Y009560D01*
X002362Y009458D02*
X002410Y009410D01*
X002410Y009313D01*
X002362Y009265D01*
X002168Y009265D01*
X002168Y010265D02*
X002362Y010265D01*
X002410Y010313D01*
X002410Y010410D01*
X002362Y010458D01*
X002362Y010560D02*
X002410Y010608D01*
X002410Y010705D01*
X002362Y010753D01*
X002313Y010753D01*
X002265Y010705D01*
X002265Y010656D01*
X002265Y010705D02*
X002217Y010753D01*
X002168Y010753D01*
X002120Y010705D01*
X002120Y010608D01*
X002168Y010560D01*
X002168Y010458D02*
X002120Y010410D01*
X002120Y010313D01*
X002168Y010265D01*
X002168Y011265D02*
X002120Y011313D01*
X002120Y011410D01*
X002168Y011458D01*
X002168Y011560D02*
X002120Y011608D01*
X002120Y011705D01*
X002168Y011753D01*
X002217Y011753D01*
X002410Y011560D01*
X002410Y011753D01*
X002362Y011458D02*
X002410Y011410D01*
X002410Y011313D01*
X002362Y011265D01*
X002168Y011265D01*
X002168Y012265D02*
X002120Y012313D01*
X002120Y012410D01*
X002168Y012458D01*
X002217Y012560D02*
X002120Y012656D01*
X002410Y012656D01*
X002410Y012560D02*
X002410Y012753D01*
X002362Y012458D02*
X002410Y012410D01*
X002410Y012313D01*
X002362Y012265D01*
X002168Y012265D01*
X002168Y013265D02*
X002120Y013313D01*
X002120Y013410D01*
X002168Y013458D01*
X002168Y013560D02*
X002120Y013608D01*
X002120Y013705D01*
X002168Y013753D01*
X002362Y013560D01*
X002410Y013608D01*
X002410Y013705D01*
X002362Y013753D01*
X002168Y013753D01*
X002168Y013560D02*
X002362Y013560D01*
X002362Y013458D02*
X002410Y013410D01*
X002410Y013313D01*
X002362Y013265D01*
X002168Y013265D01*
X001098Y016390D02*
X001001Y016487D01*
X001049Y016487D02*
X000904Y016487D01*
X000904Y016390D02*
X000904Y016680D01*
X001049Y016680D01*
X001098Y016632D01*
X001098Y016535D01*
X001049Y016487D01*
X000803Y016390D02*
X000803Y016680D01*
X000706Y016583D01*
X000610Y016680D01*
X000610Y016390D01*
X000412Y016390D02*
X000412Y016680D01*
X000508Y016680D02*
X000315Y016680D01*
X000315Y017390D02*
X000315Y017680D01*
X000508Y017390D01*
X000508Y017680D01*
X000610Y017680D02*
X000610Y017438D01*
X000658Y017390D01*
X000755Y017390D01*
X000803Y017438D01*
X000803Y017680D01*
X000904Y017680D02*
X001001Y017583D01*
X001098Y017680D01*
X001098Y017390D01*
X000904Y017390D02*
X000904Y017680D01*
X000904Y018390D02*
X001098Y018390D01*
X000904Y018390D02*
X000904Y018680D01*
X000803Y018680D02*
X000610Y018680D01*
X000706Y018680D02*
X000706Y018390D01*
X000508Y018390D02*
X000315Y018680D01*
X000508Y018680D02*
X000315Y018390D01*
X000315Y019390D02*
X000412Y019390D01*
X000363Y019390D02*
X000363Y019680D01*
X000315Y019680D02*
X000412Y019680D01*
X000511Y019680D02*
X000705Y019390D01*
X000705Y019680D01*
X000806Y019680D02*
X001000Y019680D01*
X000903Y019680D02*
X000903Y019390D01*
X000511Y019390D02*
X000511Y019680D01*
X000508Y020390D02*
X000412Y020487D01*
X000460Y020487D02*
X000315Y020487D01*
X000315Y020390D02*
X000315Y020680D01*
X000460Y020680D01*
X000508Y020632D01*
X000508Y020535D01*
X000460Y020487D01*
X000610Y020535D02*
X000706Y020535D01*
X000610Y020390D02*
X000803Y020390D01*
X000904Y020438D02*
X000953Y020390D01*
X001049Y020390D01*
X001098Y020438D01*
X001098Y020487D01*
X001049Y020535D01*
X000953Y020535D01*
X000904Y020583D01*
X000904Y020632D01*
X000953Y020680D01*
X001049Y020680D01*
X001098Y020632D01*
X000803Y020680D02*
X000610Y020680D01*
X000610Y020390D01*
X015995Y020362D02*
X016092Y020458D01*
X016285Y020458D01*
X016237Y020560D02*
X016285Y020608D01*
X016285Y020705D01*
X016237Y020753D01*
X016188Y020753D01*
X016140Y020705D01*
X016140Y020560D01*
X016237Y020560D01*
X016140Y020560D02*
X016043Y020656D01*
X015995Y020753D01*
X016140Y020458D02*
X016140Y020265D01*
X016092Y020265D02*
X015995Y020362D01*
X016092Y020265D02*
X016285Y020265D01*
X016237Y019753D02*
X016140Y019753D01*
X016092Y019705D01*
X016092Y019656D01*
X016140Y019560D01*
X015995Y019560D01*
X015995Y019753D01*
X016092Y019458D02*
X016285Y019458D01*
X016237Y019560D02*
X016285Y019608D01*
X016285Y019705D01*
X016237Y019753D01*
X016140Y019458D02*
X016140Y019265D01*
X016092Y019265D02*
X015995Y019362D01*
X016092Y019458D01*
X016092Y019265D02*
X016285Y019265D01*
X016140Y018753D02*
X016140Y018560D01*
X015995Y018705D01*
X016285Y018705D01*
X016285Y018458D02*
X016092Y018458D01*
X015995Y018362D01*
X016092Y018265D01*
X016285Y018265D01*
X016140Y018265D02*
X016140Y018458D01*
X016188Y017753D02*
X016237Y017753D01*
X016285Y017705D01*
X016285Y017608D01*
X016237Y017560D01*
X016285Y017458D02*
X016092Y017458D01*
X015995Y017362D01*
X016092Y017265D01*
X016285Y017265D01*
X016140Y017265D02*
X016140Y017458D01*
X016043Y017560D02*
X015995Y017608D01*
X015995Y017705D01*
X016043Y017753D01*
X016092Y017753D01*
X016140Y017705D01*
X016188Y017753D01*
X016140Y017705D02*
X016140Y017656D01*
X016092Y016753D02*
X016043Y016753D01*
X015995Y016705D01*
X015995Y016608D01*
X016043Y016560D01*
X016092Y016458D02*
X016285Y016458D01*
X016285Y016560D02*
X016092Y016753D01*
X016285Y016753D02*
X016285Y016560D01*
X016140Y016458D02*
X016140Y016265D01*
X016092Y016265D02*
X015995Y016362D01*
X016092Y016458D01*
X016092Y016265D02*
X016285Y016265D01*
X016285Y015753D02*
X016285Y015560D01*
X016285Y015656D02*
X015995Y015656D01*
X016092Y015560D01*
X016092Y015458D02*
X016285Y015458D01*
X016140Y015458D02*
X016140Y015265D01*
X016092Y015265D02*
X015995Y015362D01*
X016092Y015458D01*
X016092Y015265D02*
X016285Y015265D01*
X016237Y014753D02*
X016043Y014753D01*
X016237Y014560D01*
X016285Y014608D01*
X016285Y014705D01*
X016237Y014753D01*
X016237Y014560D02*
X016043Y014560D01*
X015995Y014608D01*
X015995Y014705D01*
X016043Y014753D01*
X016092Y014458D02*
X016285Y014458D01*
X016140Y014458D02*
X016140Y014265D01*
X016092Y014265D02*
X015995Y014362D01*
X016092Y014458D01*
X016092Y014265D02*
X016285Y014265D01*
X016995Y012878D02*
X017043Y012878D01*
X017237Y012685D01*
X017285Y012685D01*
X017237Y012583D02*
X017285Y012535D01*
X017285Y012390D01*
X016995Y012390D01*
X016995Y012535D01*
X017043Y012583D01*
X017092Y012583D01*
X017140Y012535D01*
X017140Y012390D01*
X017140Y012535D02*
X017188Y012583D01*
X017237Y012583D01*
X016995Y012685D02*
X016995Y012878D01*
X016995Y011753D02*
X017043Y011656D01*
X017140Y011560D01*
X017140Y011705D01*
X017188Y011753D01*
X017237Y011753D01*
X017285Y011705D01*
X017285Y011608D01*
X017237Y011560D01*
X017140Y011560D01*
X017188Y011458D02*
X017237Y011458D01*
X017285Y011410D01*
X017285Y011265D01*
X016995Y011265D01*
X016995Y011410D01*
X017043Y011458D01*
X017092Y011458D01*
X017140Y011410D01*
X017140Y011265D01*
X017140Y011410D02*
X017188Y011458D01*
X017140Y010753D02*
X017237Y010753D01*
X017285Y010705D01*
X017285Y010608D01*
X017237Y010560D01*
X017140Y010560D02*
X017092Y010656D01*
X017092Y010705D01*
X017140Y010753D01*
X016995Y010753D02*
X016995Y010560D01*
X017140Y010560D01*
X017188Y010458D02*
X017237Y010458D01*
X017285Y010410D01*
X017285Y010265D01*
X016995Y010265D01*
X016995Y010410D01*
X017043Y010458D01*
X017092Y010458D01*
X017140Y010410D01*
X017140Y010265D01*
X017140Y010410D02*
X017188Y010458D01*
X017140Y009753D02*
X017140Y009560D01*
X016995Y009705D01*
X017285Y009705D01*
X017237Y009458D02*
X017285Y009410D01*
X017285Y009265D01*
X016995Y009265D01*
X016995Y009410D01*
X017043Y009458D01*
X017092Y009458D01*
X017140Y009410D01*
X017140Y009265D01*
X017140Y009410D02*
X017188Y009458D01*
X017237Y009458D01*
X017237Y008753D02*
X017285Y008705D01*
X017285Y008608D01*
X017237Y008560D01*
X017237Y008458D02*
X017285Y008410D01*
X017285Y008265D01*
X016995Y008265D01*
X016995Y008410D01*
X017043Y008458D01*
X017092Y008458D01*
X017140Y008410D01*
X017140Y008265D01*
X017140Y008410D02*
X017188Y008458D01*
X017237Y008458D01*
X017043Y008560D02*
X016995Y008608D01*
X016995Y008705D01*
X017043Y008753D01*
X017092Y008753D01*
X017140Y008705D01*
X017188Y008753D01*
X017237Y008753D01*
X017140Y008705D02*
X017140Y008656D01*
X017092Y007753D02*
X017043Y007753D01*
X016995Y007705D01*
X016995Y007608D01*
X017043Y007560D01*
X017043Y007458D02*
X017092Y007458D01*
X017140Y007410D01*
X017140Y007265D01*
X017285Y007265D02*
X017285Y007410D01*
X017237Y007458D01*
X017188Y007458D01*
X017140Y007410D01*
X017043Y007458D02*
X016995Y007410D01*
X016995Y007265D01*
X017285Y007265D01*
X017285Y007560D02*
X017092Y007753D01*
X017285Y007753D02*
X017285Y007560D01*
X017285Y006753D02*
X017285Y006560D01*
X017285Y006656D02*
X016995Y006656D01*
X017092Y006560D01*
X017092Y006458D02*
X017043Y006458D01*
X016995Y006410D01*
X016995Y006265D01*
X017285Y006265D01*
X017285Y006410D01*
X017237Y006458D01*
X017188Y006458D01*
X017140Y006410D01*
X017140Y006265D01*
X017140Y006410D02*
X017092Y006458D01*
X017043Y005753D02*
X017237Y005560D01*
X017285Y005608D01*
X017285Y005705D01*
X017237Y005753D01*
X017043Y005753D01*
X016995Y005705D01*
X016995Y005608D01*
X017043Y005560D01*
X017237Y005560D01*
X017237Y005458D02*
X017285Y005410D01*
X017285Y005265D01*
X016995Y005265D01*
X016995Y005410D01*
X017043Y005458D01*
X017092Y005458D01*
X017140Y005410D01*
X017140Y005265D01*
X017140Y005410D02*
X017188Y005458D01*
X017237Y005458D01*
X016285Y021265D02*
X016092Y021265D01*
X015995Y021362D01*
X016092Y021458D01*
X016285Y021458D01*
X016285Y021560D02*
X016237Y021560D01*
X016043Y021753D01*
X015995Y021753D01*
X015995Y021560D01*
X016140Y021458D02*
X016140Y021265D01*
D12*
X020820Y019320D02*
X020820Y019173D01*
X021040Y019173D01*
X021040Y019099D02*
X021040Y018952D01*
X020820Y018952D01*
X020820Y019099D01*
X020930Y019025D02*
X020930Y018952D01*
X020930Y018878D02*
X020967Y018841D01*
X020967Y018731D01*
X021040Y018731D02*
X020820Y018731D01*
X020820Y018841D01*
X020857Y018878D01*
X020930Y018878D01*
X020967Y018804D02*
X021040Y018878D01*
X021040Y018657D02*
X020893Y018657D01*
X020820Y018583D01*
X020893Y018510D01*
X021040Y018510D01*
X020930Y018510D02*
X020930Y018657D01*
X020930Y019173D02*
X020930Y019246D01*
X021003Y018099D02*
X020857Y018099D01*
X020820Y018062D01*
X020820Y017952D01*
X021040Y017952D01*
X021040Y018062D01*
X021003Y018099D01*
X021040Y017878D02*
X020820Y017878D01*
X020820Y017731D02*
X021040Y017878D01*
X021040Y017731D02*
X020820Y017731D01*
X020857Y017657D02*
X020820Y017620D01*
X020820Y017547D01*
X020857Y017510D01*
X021003Y017510D01*
X021040Y017547D01*
X021040Y017620D01*
X021003Y017657D01*
X020930Y017657D01*
X020930Y017583D01*
X020967Y017099D02*
X021003Y017099D01*
X021040Y017062D01*
X021040Y016989D01*
X021003Y016952D01*
X021040Y016878D02*
X021040Y016731D01*
X021040Y016804D02*
X020820Y016804D01*
X020893Y016731D01*
X020857Y016657D02*
X020820Y016620D01*
X020820Y016510D01*
X021040Y016510D01*
X021040Y016620D01*
X021003Y016657D01*
X020857Y016657D01*
X020857Y016952D02*
X020820Y016989D01*
X020820Y017062D01*
X020857Y017099D01*
X020893Y017099D01*
X020930Y017062D01*
X020967Y017099D01*
X020930Y017062D02*
X020930Y017025D01*
X020893Y016099D02*
X020857Y016099D01*
X020820Y016062D01*
X020820Y015989D01*
X020857Y015952D01*
X020893Y016099D02*
X021040Y015952D01*
X021040Y016099D01*
X021040Y015878D02*
X021040Y015731D01*
X021040Y015804D02*
X020820Y015804D01*
X020893Y015731D01*
X020857Y015657D02*
X020820Y015620D01*
X020820Y015510D01*
X021040Y015510D01*
X021040Y015620D01*
X021003Y015657D01*
X020857Y015657D01*
X021040Y015099D02*
X021040Y014952D01*
X021040Y015025D02*
X020820Y015025D01*
X020893Y014952D01*
X021040Y014878D02*
X021040Y014731D01*
X021040Y014804D02*
X020820Y014804D01*
X020893Y014731D01*
X020857Y014657D02*
X020820Y014620D01*
X020820Y014510D01*
X021040Y014510D01*
X021040Y014620D01*
X021003Y014657D01*
X020857Y014657D01*
X020857Y013974D02*
X021003Y013827D01*
X021040Y013864D01*
X021040Y013937D01*
X021003Y013974D01*
X020857Y013974D01*
X020820Y013937D01*
X020820Y013864D01*
X020857Y013827D01*
X021003Y013827D01*
X021040Y013753D02*
X021040Y013606D01*
X021040Y013679D02*
X020820Y013679D01*
X020893Y013606D01*
X020857Y013532D02*
X020820Y013495D01*
X020820Y013385D01*
X021040Y013385D01*
X021040Y013495D01*
X021003Y013532D01*
X020857Y013532D01*
X020857Y012878D02*
X020820Y012841D01*
X020820Y012768D01*
X020857Y012731D01*
X020893Y012731D01*
X020930Y012768D01*
X020930Y012878D01*
X021003Y012878D02*
X020857Y012878D01*
X021003Y012878D02*
X021040Y012841D01*
X021040Y012768D01*
X021003Y012731D01*
X021003Y012657D02*
X020857Y012657D01*
X020820Y012620D01*
X020820Y012510D01*
X021040Y012510D01*
X021040Y012620D01*
X021003Y012657D01*
X021003Y011878D02*
X021040Y011841D01*
X021040Y011768D01*
X021003Y011731D01*
X020967Y011731D01*
X020930Y011768D01*
X020930Y011841D01*
X020967Y011878D01*
X021003Y011878D01*
X020930Y011841D02*
X020893Y011878D01*
X020857Y011878D01*
X020820Y011841D01*
X020820Y011768D01*
X020857Y011731D01*
X020893Y011731D01*
X020930Y011768D01*
X021003Y011657D02*
X020857Y011657D01*
X020820Y011620D01*
X020820Y011510D01*
X021040Y011510D01*
X021040Y011620D01*
X021003Y011657D01*
X020857Y010253D02*
X021003Y010106D01*
X021040Y010106D01*
X021003Y010032D02*
X020857Y010032D01*
X020820Y009995D01*
X020820Y009885D01*
X021040Y009885D01*
X021040Y009995D01*
X021003Y010032D01*
X020820Y010106D02*
X020820Y010253D01*
X020857Y010253D01*
X020820Y009253D02*
X020857Y009179D01*
X020930Y009106D01*
X020930Y009216D01*
X020967Y009253D01*
X021003Y009253D01*
X021040Y009216D01*
X021040Y009143D01*
X021003Y009106D01*
X020930Y009106D01*
X021003Y009032D02*
X020857Y009032D01*
X020820Y008995D01*
X020820Y008885D01*
X021040Y008885D01*
X021040Y008995D01*
X021003Y009032D01*
X021003Y008253D02*
X021040Y008216D01*
X021040Y008143D01*
X021003Y008106D01*
X020930Y008106D02*
X020893Y008179D01*
X020893Y008216D01*
X020930Y008253D01*
X021003Y008253D01*
X020930Y008106D02*
X020820Y008106D01*
X020820Y008253D01*
X020857Y008032D02*
X020820Y007995D01*
X020820Y007885D01*
X021040Y007885D01*
X021040Y007995D01*
X021003Y008032D01*
X020857Y008032D01*
X020930Y007253D02*
X020930Y007106D01*
X020820Y007216D01*
X021040Y007216D01*
X021003Y007032D02*
X020857Y007032D01*
X020820Y006995D01*
X020820Y006885D01*
X021040Y006885D01*
X021040Y006995D01*
X021003Y007032D01*
X021003Y006253D02*
X021040Y006216D01*
X021040Y006143D01*
X021003Y006106D01*
X021003Y006032D02*
X020857Y006032D01*
X020820Y005995D01*
X020820Y005885D01*
X021040Y005885D01*
X021040Y005995D01*
X021003Y006032D01*
X020857Y006106D02*
X020820Y006143D01*
X020820Y006216D01*
X020857Y006253D01*
X020893Y006253D01*
X020930Y006216D01*
X020967Y006253D01*
X021003Y006253D01*
X020930Y006216D02*
X020930Y006179D01*
X020893Y005253D02*
X020857Y005253D01*
X020820Y005216D01*
X020820Y005143D01*
X020857Y005106D01*
X020857Y005032D02*
X020820Y004995D01*
X020820Y004885D01*
X021040Y004885D01*
X021040Y004995D01*
X021003Y005032D01*
X020857Y005032D01*
X021040Y005106D02*
X020893Y005253D01*
X021040Y005253D02*
X021040Y005106D01*
X021040Y004253D02*
X021040Y004106D01*
X021040Y004179D02*
X020820Y004179D01*
X020893Y004106D01*
X020857Y004032D02*
X020820Y003995D01*
X020820Y003885D01*
X021040Y003885D01*
X021040Y003995D01*
X021003Y004032D01*
X020857Y004032D01*
X020857Y003253D02*
X021003Y003106D01*
X021040Y003143D01*
X021040Y003216D01*
X021003Y003253D01*
X020857Y003253D01*
X020820Y003216D01*
X020820Y003143D01*
X020857Y003106D01*
X021003Y003106D01*
X021003Y003032D02*
X020857Y003032D01*
X020820Y002995D01*
X020820Y002885D01*
X021040Y002885D01*
X021040Y002995D01*
X021003Y003032D01*
X017955Y005010D02*
X017735Y005010D01*
X017735Y005157D01*
X017735Y005231D02*
X017955Y005231D01*
X017955Y005378D01*
X017955Y005525D02*
X017735Y005525D01*
X017735Y005452D02*
X017735Y005599D01*
X017845Y005083D02*
X017845Y005010D01*
X002290Y004812D02*
X002290Y004739D01*
X002253Y004702D01*
X002107Y004849D01*
X002253Y004849D01*
X002290Y004812D01*
X002253Y004702D02*
X002107Y004702D01*
X002070Y004739D01*
X002070Y004812D01*
X002107Y004849D01*
X002070Y004628D02*
X002217Y004628D01*
X002290Y004554D01*
X002217Y004481D01*
X002070Y004481D01*
X002070Y004407D02*
X002070Y004260D01*
X002180Y004260D01*
X002143Y004333D01*
X002143Y004370D01*
X002180Y004407D01*
X002253Y004407D01*
X002290Y004370D01*
X002290Y004297D01*
X002253Y004260D01*
X002070Y003849D02*
X002070Y003702D01*
X002070Y003775D02*
X002290Y003775D01*
X002253Y003628D02*
X002180Y003628D01*
X002180Y003554D01*
X002107Y003481D02*
X002253Y003481D01*
X002290Y003518D01*
X002290Y003591D01*
X002253Y003628D01*
X002107Y003628D02*
X002070Y003591D01*
X002070Y003518D01*
X002107Y003481D01*
X002070Y003407D02*
X002070Y003260D01*
X002070Y003333D02*
X002290Y003333D01*
X002290Y002849D02*
X002070Y002849D01*
X002070Y002702D02*
X002290Y002702D01*
X002217Y002775D01*
X002290Y002849D01*
X002253Y002628D02*
X002290Y002591D01*
X002290Y002518D01*
X002253Y002481D01*
X002180Y002518D02*
X002180Y002591D01*
X002217Y002628D01*
X002253Y002628D01*
X002180Y002518D02*
X002143Y002481D01*
X002107Y002481D01*
X002070Y002518D01*
X002070Y002591D01*
X002107Y002628D01*
X002070Y002407D02*
X002217Y002407D01*
X002290Y002333D01*
X002217Y002260D01*
X002070Y002260D01*
X000540Y002885D02*
X000393Y002885D01*
X000320Y002958D01*
X000393Y003032D01*
X000540Y003032D01*
X000503Y003106D02*
X000540Y003143D01*
X000540Y003216D01*
X000503Y003253D01*
X000430Y003253D01*
X000393Y003216D01*
X000393Y003179D01*
X000430Y003106D01*
X000320Y003106D01*
X000320Y003253D01*
X000430Y003032D02*
X000430Y002885D01*
X000430Y003885D02*
X000430Y004032D01*
X000393Y004032D02*
X000540Y004032D01*
X000430Y004106D02*
X000430Y004253D01*
X000540Y004216D02*
X000320Y004216D01*
X000430Y004106D01*
X000393Y004032D02*
X000320Y003958D01*
X000393Y003885D01*
X000540Y003885D01*
X000540Y004885D02*
X000393Y004885D01*
X000320Y004958D01*
X000393Y005032D01*
X000540Y005032D01*
X000503Y005106D02*
X000540Y005143D01*
X000540Y005216D01*
X000503Y005253D01*
X000467Y005253D01*
X000430Y005216D01*
X000430Y005179D01*
X000430Y005216D02*
X000393Y005253D01*
X000357Y005253D01*
X000320Y005216D01*
X000320Y005143D01*
X000357Y005106D01*
X000430Y005032D02*
X000430Y004885D01*
X000430Y005885D02*
X000430Y006032D01*
X000393Y006032D02*
X000540Y006032D01*
X000540Y006106D02*
X000393Y006253D01*
X000357Y006253D01*
X000320Y006216D01*
X000320Y006143D01*
X000357Y006106D01*
X000393Y006032D02*
X000320Y005958D01*
X000393Y005885D01*
X000540Y005885D01*
X000540Y006106D02*
X000540Y006253D01*
X000540Y006885D02*
X000393Y006885D01*
X000320Y006958D01*
X000393Y007032D01*
X000540Y007032D01*
X000540Y007106D02*
X000540Y007253D01*
X000540Y007179D02*
X000320Y007179D01*
X000393Y007106D01*
X000430Y007032D02*
X000430Y006885D01*
X000430Y007885D02*
X000430Y008032D01*
X000393Y008032D02*
X000540Y008032D01*
X000503Y008106D02*
X000357Y008253D01*
X000503Y008253D01*
X000540Y008216D01*
X000540Y008143D01*
X000503Y008106D01*
X000357Y008106D01*
X000320Y008143D01*
X000320Y008216D01*
X000357Y008253D01*
X000393Y008032D02*
X000320Y007958D01*
X000393Y007885D01*
X000540Y007885D01*
X000467Y009760D02*
X000320Y009760D01*
X000467Y009760D02*
X000540Y009833D01*
X000467Y009907D01*
X000320Y009907D01*
X000320Y009981D02*
X000320Y010054D01*
X000320Y010018D02*
X000540Y010018D01*
X000540Y010054D02*
X000540Y009981D01*
X000540Y010128D02*
X000320Y010128D01*
X000540Y010275D01*
X000320Y010275D01*
X000357Y010760D02*
X000503Y010760D01*
X000540Y010797D01*
X000540Y010870D01*
X000503Y010907D01*
X000430Y010907D01*
X000430Y010833D01*
X000357Y010760D02*
X000320Y010797D01*
X000320Y010870D01*
X000357Y010907D01*
X000320Y010981D02*
X000540Y011128D01*
X000320Y011128D01*
X000320Y011202D02*
X000320Y011312D01*
X000357Y011349D01*
X000503Y011349D01*
X000540Y011312D01*
X000540Y011202D01*
X000320Y011202D01*
X000320Y010981D02*
X000540Y010981D01*
X000503Y011760D02*
X000357Y011760D01*
X000320Y011797D01*
X000320Y011870D01*
X000357Y011907D01*
X000430Y011907D02*
X000430Y011833D01*
X000430Y011907D02*
X000503Y011907D01*
X000540Y011870D01*
X000540Y011797D01*
X000503Y011760D01*
X000540Y011981D02*
X000320Y011981D01*
X000540Y012128D01*
X000320Y012128D01*
X000320Y012202D02*
X000320Y012312D01*
X000357Y012349D01*
X000503Y012349D01*
X000540Y012312D01*
X000540Y012202D01*
X000320Y012202D01*
X000320Y012760D02*
X000430Y012760D01*
X000393Y012833D01*
X000393Y012870D01*
X000430Y012907D01*
X000503Y012907D01*
X000540Y012870D01*
X000540Y012797D01*
X000503Y012760D01*
X000320Y012760D02*
X000320Y012907D01*
X000320Y012981D02*
X000467Y012981D01*
X000540Y013054D01*
X000467Y013128D01*
X000320Y013128D01*
X000357Y013202D02*
X000320Y013239D01*
X000320Y013312D01*
X000357Y013349D01*
X000503Y013202D01*
X000540Y013239D01*
X000540Y013312D01*
X000503Y013349D01*
X000357Y013349D01*
X000357Y013202D02*
X000503Y013202D01*
X000503Y013760D02*
X000540Y013797D01*
X000540Y013870D01*
X000503Y013907D01*
X000467Y013907D01*
X000430Y013870D01*
X000430Y013833D01*
X000430Y013870D02*
X000393Y013907D01*
X000357Y013907D01*
X000320Y013870D01*
X000320Y013797D01*
X000357Y013760D01*
X000320Y013981D02*
X000467Y013981D01*
X000540Y014054D01*
X000467Y014128D01*
X000320Y014128D01*
X000357Y014202D02*
X000320Y014239D01*
X000320Y014312D01*
X000357Y014349D01*
X000393Y014349D01*
X000430Y014312D01*
X000467Y014349D01*
X000503Y014349D01*
X000540Y014312D01*
X000540Y014239D01*
X000503Y014202D01*
X000430Y014275D02*
X000430Y014312D01*
X000467Y014760D02*
X000467Y014870D01*
X000430Y014907D01*
X000357Y014907D01*
X000320Y014870D01*
X000320Y014760D01*
X000540Y014760D01*
X000467Y014833D02*
X000540Y014907D01*
X000540Y014981D02*
X000540Y015128D01*
X000503Y015202D02*
X000540Y015239D01*
X000540Y015312D01*
X000503Y015349D01*
X000467Y015349D01*
X000430Y015312D01*
X000430Y015239D01*
X000393Y015202D01*
X000357Y015202D01*
X000320Y015239D01*
X000320Y015312D01*
X000357Y015349D01*
X000320Y015128D02*
X000320Y014981D01*
X000540Y014981D01*
X000430Y014981D02*
X000430Y015054D01*
X002070Y014525D02*
X002290Y014525D01*
X002290Y014452D02*
X002290Y014599D01*
X002143Y014452D02*
X002070Y014525D01*
X002070Y014378D02*
X002290Y014378D01*
X002070Y014231D01*
X002290Y014231D01*
X002290Y014157D02*
X002217Y014083D01*
X002217Y014120D02*
X002217Y014010D01*
X002290Y014010D02*
X002070Y014010D01*
X002070Y014120D01*
X002107Y014157D01*
X002180Y014157D01*
X002217Y014120D01*
D13*
X002675Y013875D02*
X002675Y013375D01*
X002925Y013125D01*
X002675Y012875D01*
X002675Y012375D01*
X002925Y012125D01*
X003425Y012125D01*
X003675Y012375D01*
X003675Y012875D01*
X003425Y013125D01*
X002925Y013125D01*
X003425Y013125D02*
X003675Y013375D01*
X003675Y013875D01*
X003425Y014125D01*
X002925Y014125D01*
X002675Y013875D01*
X003675Y013875D02*
X003675Y013375D01*
X003925Y013125D01*
X003675Y012875D01*
X003675Y012375D01*
X003925Y012125D01*
X003675Y011875D01*
X003675Y011375D01*
X003425Y011125D01*
X003675Y010875D01*
X003675Y010375D01*
X003425Y010125D01*
X003675Y009875D01*
X003675Y009375D01*
X003425Y009125D01*
X002925Y009125D01*
X002675Y009375D01*
X002675Y009875D01*
X002925Y010125D01*
X002675Y010375D01*
X002675Y010875D01*
X002925Y011125D01*
X002675Y011375D01*
X002675Y011875D01*
X002925Y012125D01*
X003425Y012125D02*
X003675Y011875D01*
X003675Y011375D01*
X003925Y011125D01*
X004425Y011125D01*
X004675Y011375D01*
X004675Y011875D01*
X004425Y012125D01*
X003925Y012125D01*
X004425Y012125D02*
X004675Y012375D01*
X004675Y012875D01*
X004425Y013125D01*
X003925Y013125D01*
X004425Y013125D02*
X004675Y013375D01*
X004675Y013875D01*
X004425Y014125D01*
X003925Y014125D01*
X003675Y014375D01*
X003675Y014875D01*
X003925Y015125D01*
X003675Y015375D01*
X003675Y015875D01*
X003925Y016125D01*
X003675Y016375D01*
X003425Y016125D01*
X001925Y016125D01*
X001675Y016375D01*
X001675Y016875D01*
X001925Y017125D01*
X003425Y017125D01*
X003675Y016875D01*
X003675Y016375D01*
X003675Y016875D01*
X003925Y017125D01*
X003675Y017375D01*
X003425Y017125D01*
X003675Y017375D02*
X003675Y017875D01*
X003425Y018125D01*
X001925Y018125D01*
X001675Y017875D01*
X001675Y017375D01*
X001925Y017125D01*
X001925Y018125D02*
X001675Y018375D01*
X001675Y018875D01*
X001925Y019125D01*
X003425Y019125D01*
X003675Y018875D01*
X003675Y018375D01*
X003425Y018125D01*
X003675Y017875D02*
X003925Y018125D01*
X003675Y018375D01*
X003675Y018875D01*
X003925Y019125D01*
X003675Y019375D01*
X003425Y019125D01*
X003675Y019375D02*
X003675Y019875D01*
X003425Y020125D01*
X001925Y020125D01*
X001675Y019875D01*
X001675Y019375D01*
X001925Y019125D01*
X001925Y020125D02*
X001675Y020375D01*
X001675Y020875D01*
X001925Y021125D01*
X003425Y021125D01*
X003675Y020875D01*
X003675Y020375D01*
X003425Y020125D01*
X003675Y019875D02*
X003925Y020125D01*
X003675Y020375D01*
X003675Y020875D01*
X003925Y021125D01*
X003675Y021375D01*
X003675Y021875D01*
X003925Y022125D01*
X004425Y022125D01*
X004675Y021875D01*
X004675Y021375D01*
X004425Y021125D01*
X004675Y020875D01*
X004675Y020375D01*
X004425Y020125D01*
X003925Y020125D01*
X003675Y019875D02*
X003675Y019375D01*
X003925Y019125D02*
X004425Y019125D01*
X004675Y018875D01*
X004675Y018375D01*
X004425Y018125D01*
X004675Y017875D01*
X004675Y017375D01*
X004425Y017125D01*
X003925Y017125D01*
X003675Y017375D02*
X003675Y017875D01*
X003925Y018125D02*
X004425Y018125D01*
X004425Y017125D02*
X004675Y016875D01*
X004675Y016375D01*
X004425Y016125D01*
X004675Y015875D01*
X004675Y015375D01*
X004425Y015125D01*
X004675Y014875D01*
X004675Y014375D01*
X004425Y014125D01*
X003925Y014125D02*
X003675Y013875D01*
X003925Y015125D02*
X004425Y015125D01*
X004425Y016125D02*
X003925Y016125D01*
X001675Y015375D02*
X001675Y014875D01*
X001425Y014625D01*
X001675Y014375D01*
X001675Y013875D01*
X001425Y013625D01*
X000925Y013625D01*
X000675Y013875D01*
X000675Y014375D01*
X000925Y014625D01*
X000675Y014875D01*
X000675Y015375D01*
X000925Y015625D01*
X001425Y015625D01*
X001675Y015375D01*
X001425Y014625D02*
X000925Y014625D01*
X000925Y013625D02*
X000675Y013375D01*
X000675Y012875D01*
X000925Y012625D01*
X000675Y012375D01*
X000675Y011875D01*
X000925Y011625D01*
X000675Y011375D01*
X000675Y010875D01*
X000925Y010625D01*
X000675Y010375D01*
X000675Y009875D01*
X000925Y009625D01*
X001425Y009625D01*
X001675Y009875D01*
X001675Y010375D01*
X001425Y010625D01*
X000925Y010625D01*
X001425Y010625D02*
X001675Y010875D01*
X001675Y011375D01*
X001425Y011625D01*
X000925Y011625D01*
X001425Y011625D02*
X001675Y011875D01*
X001675Y012375D01*
X001425Y012625D01*
X000925Y012625D01*
X001425Y012625D02*
X001675Y012875D01*
X001675Y013375D01*
X001425Y013625D01*
X002925Y011125D02*
X003425Y011125D01*
X003675Y010875D02*
X003925Y011125D01*
X003675Y010875D02*
X003675Y010375D01*
X003925Y010125D01*
X003675Y009875D01*
X003675Y009375D01*
X003925Y009125D01*
X003675Y008875D01*
X003675Y008375D01*
X003425Y008125D01*
X003675Y007875D01*
X003675Y007375D01*
X003425Y007125D01*
X003675Y006875D01*
X003675Y006375D01*
X003425Y006125D01*
X003675Y005875D01*
X003675Y005375D01*
X003425Y005125D01*
X002925Y005125D01*
X002675Y005375D01*
X002675Y005875D01*
X002925Y006125D01*
X002675Y006375D01*
X002675Y006875D01*
X002925Y007125D01*
X002675Y007375D01*
X002675Y007875D01*
X002925Y008125D01*
X002675Y008375D01*
X002675Y008875D01*
X002925Y009125D01*
X003425Y009125D02*
X003675Y008875D01*
X003675Y008375D01*
X003925Y008125D01*
X004425Y008125D01*
X004675Y008375D01*
X004675Y008875D01*
X004425Y009125D01*
X003925Y009125D01*
X004425Y009125D02*
X004675Y009375D01*
X004675Y009875D01*
X004425Y010125D01*
X003925Y010125D01*
X003425Y010125D02*
X002925Y010125D01*
X001425Y008625D02*
X001675Y008375D01*
X001675Y007875D01*
X001425Y007625D01*
X001675Y007375D01*
X001675Y006875D01*
X001425Y006625D01*
X000925Y006625D01*
X000675Y006875D01*
X000675Y007375D01*
X000925Y007625D01*
X000675Y007875D01*
X000675Y008375D01*
X000925Y008625D01*
X001425Y008625D01*
X001425Y007625D02*
X000925Y007625D01*
X000925Y006625D02*
X000675Y006375D01*
X000675Y005875D01*
X000925Y005625D01*
X000675Y005375D01*
X000675Y004875D01*
X000925Y004625D01*
X000675Y004375D01*
X000675Y003875D01*
X000925Y003625D01*
X000675Y003375D01*
X000675Y002875D01*
X000925Y002625D01*
X001425Y002625D01*
X001675Y002875D01*
X001675Y003375D01*
X001425Y003625D01*
X000925Y003625D01*
X001425Y003625D02*
X001675Y003875D01*
X001675Y004375D01*
X001425Y004625D01*
X000925Y004625D01*
X001425Y004625D02*
X001675Y004875D01*
X001675Y005375D01*
X001425Y005625D01*
X000925Y005625D01*
X001425Y005625D02*
X001675Y005875D01*
X001675Y006375D01*
X001425Y006625D01*
X002925Y005125D02*
X002675Y004875D01*
X002675Y004375D01*
X002925Y004125D01*
X003425Y004125D01*
X003675Y004375D01*
X003675Y004875D01*
X003425Y005125D01*
X002925Y005125D01*
X002925Y004125D02*
X002675Y003875D01*
X002675Y003375D01*
X002925Y003125D01*
X003425Y003125D01*
X003675Y003375D01*
X003675Y003875D01*
X003425Y004125D01*
X003675Y003875D02*
X003675Y003375D01*
X003925Y003125D01*
X003675Y002875D01*
X003675Y002375D01*
X003425Y002125D01*
X002925Y002125D01*
X002675Y002375D01*
X002675Y002875D01*
X002925Y003125D01*
X003425Y003125D02*
X003675Y002875D01*
X003675Y002375D01*
X003925Y002125D01*
X004425Y002125D01*
X004675Y002375D01*
X004675Y002875D01*
X004425Y003125D01*
X003925Y003125D01*
X004425Y003125D02*
X004675Y003375D01*
X004675Y003875D01*
X004425Y004125D01*
X003925Y004125D01*
X003675Y003875D01*
X003925Y004125D02*
X003675Y004375D01*
X003675Y004875D01*
X003925Y005125D01*
X003675Y005375D01*
X003675Y005875D01*
X003925Y006125D01*
X003675Y006375D01*
X003675Y006875D01*
X003925Y007125D01*
X003675Y007375D01*
X003675Y007875D01*
X003925Y008125D01*
X003425Y008125D02*
X002925Y008125D01*
X002925Y007125D02*
X003425Y007125D01*
X003925Y007125D02*
X004425Y007125D01*
X004675Y006875D01*
X004675Y006375D01*
X004425Y006125D01*
X004675Y005875D01*
X004675Y005375D01*
X004425Y005125D01*
X003925Y005125D01*
X004425Y005125D02*
X004675Y004875D01*
X004675Y004375D01*
X004425Y004125D01*
X004425Y006125D02*
X003925Y006125D01*
X003425Y006125D02*
X002925Y006125D01*
X004425Y007125D02*
X004675Y007375D01*
X004675Y007875D01*
X004425Y008125D01*
X004425Y010125D02*
X004675Y010375D01*
X004675Y010875D01*
X004425Y011125D01*
X009254Y010701D02*
X009895Y010701D01*
X009895Y010914D02*
X009895Y010487D01*
X009895Y010270D02*
X009895Y009843D01*
X009468Y010270D01*
X009361Y010270D01*
X009254Y010163D01*
X009254Y009949D01*
X009361Y009843D01*
X009361Y009625D02*
X009788Y009198D01*
X009895Y009305D01*
X009895Y009518D01*
X009788Y009625D01*
X009361Y009625D01*
X009254Y009518D01*
X009254Y009305D01*
X009361Y009198D01*
X009788Y009198D01*
X009895Y008981D02*
X009895Y008553D01*
X009468Y008981D01*
X009361Y008981D01*
X009254Y008874D01*
X009254Y008660D01*
X009361Y008553D01*
X009468Y007693D02*
X009254Y007479D01*
X009361Y007262D02*
X009254Y007155D01*
X009254Y006941D01*
X009361Y006835D01*
X009788Y006835D01*
X009895Y006941D01*
X009895Y007155D01*
X009788Y007262D01*
X009895Y007479D02*
X009681Y007693D01*
X009468Y007693D01*
X009254Y006619D02*
X009468Y006405D01*
X009681Y006405D01*
X009895Y006619D01*
X009468Y010487D02*
X009254Y010701D01*
X009361Y011776D02*
X009788Y011776D01*
X009895Y011883D01*
X009895Y012097D01*
X009788Y012203D01*
X009895Y012421D02*
X009254Y012421D01*
X009468Y012528D02*
X009468Y012741D01*
X009575Y012848D01*
X009895Y012848D01*
X009788Y013065D02*
X009681Y013172D01*
X009681Y013492D01*
X009575Y013492D02*
X009895Y013492D01*
X009895Y013172D01*
X009788Y013065D01*
X009468Y013172D02*
X009468Y013386D01*
X009575Y013492D01*
X009681Y013710D02*
X009468Y013923D01*
X009468Y014030D01*
X009254Y014247D02*
X009254Y014354D01*
X009895Y014354D01*
X009895Y014247D02*
X009895Y014461D01*
X009788Y014677D02*
X009895Y014783D01*
X009895Y014997D01*
X009681Y015104D02*
X009681Y014677D01*
X009575Y014677D02*
X009788Y014677D01*
X009575Y014677D02*
X009468Y014783D01*
X009468Y014997D01*
X009575Y015104D01*
X009681Y015104D01*
X009575Y015321D02*
X009468Y015428D01*
X009468Y015748D01*
X009681Y015642D02*
X009681Y015428D01*
X009575Y015321D01*
X009681Y015642D02*
X009788Y015748D01*
X009895Y015642D01*
X009895Y015321D01*
X009895Y016610D02*
X009254Y016610D01*
X009468Y016824D01*
X009254Y017037D01*
X009895Y017037D01*
X009788Y017255D02*
X009681Y017362D01*
X009681Y017682D01*
X009575Y017682D02*
X009468Y017575D01*
X009468Y017362D01*
X009575Y017682D02*
X009895Y017682D01*
X009895Y017362D01*
X009788Y017255D01*
X009788Y017899D02*
X009575Y017899D01*
X009468Y018006D01*
X009468Y018327D01*
X009254Y018544D02*
X009254Y018864D01*
X009361Y018971D01*
X009788Y018971D01*
X009895Y018864D01*
X009895Y018544D01*
X009254Y018544D01*
X009575Y019189D02*
X009788Y019189D01*
X009895Y019295D01*
X009895Y019509D01*
X009788Y019616D01*
X009575Y019616D01*
X009468Y019509D01*
X009468Y019295D01*
X009575Y019189D01*
X009468Y019833D02*
X009468Y020153D01*
X009575Y020260D01*
X009895Y020260D01*
X009788Y020478D02*
X009681Y020584D01*
X009681Y020905D01*
X009575Y020905D02*
X009468Y020798D01*
X009468Y020584D01*
X009788Y020478D02*
X009895Y020584D01*
X009895Y020905D01*
X009575Y020905D01*
X009254Y021122D02*
X009254Y021229D01*
X009895Y021229D01*
X009895Y021122D02*
X009895Y021336D01*
X009788Y021552D02*
X009575Y021552D01*
X009468Y021659D01*
X009468Y021979D01*
X009254Y021979D02*
X009895Y021979D01*
X009895Y021659D01*
X009788Y021552D01*
X009895Y019833D02*
X009468Y019833D01*
X009895Y018327D02*
X009895Y018006D01*
X009788Y017899D01*
X009895Y013710D02*
X009468Y013710D01*
X009468Y012528D02*
X009575Y012421D01*
X009361Y012203D02*
X009254Y012097D01*
X009254Y011883D01*
X009361Y011776D01*
X014675Y011875D02*
X014675Y011375D01*
X014925Y011125D01*
X015425Y011125D01*
X015675Y011375D01*
X015675Y011875D01*
X015925Y012125D01*
X015675Y012375D01*
X015675Y012875D01*
X015925Y013125D01*
X016425Y013125D01*
X016675Y012875D01*
X016675Y012375D01*
X016425Y012125D01*
X016675Y011875D01*
X016675Y011375D01*
X016425Y011125D01*
X015925Y011125D01*
X015675Y011375D01*
X015675Y011875D01*
X015425Y012125D01*
X014925Y012125D01*
X014675Y011875D01*
X014925Y012125D02*
X014675Y012375D01*
X014675Y012875D01*
X014925Y013125D01*
X014675Y013375D01*
X014675Y013875D01*
X014925Y014125D01*
X014675Y014375D01*
X014675Y014875D01*
X014925Y015125D01*
X014675Y015375D01*
X014675Y015875D01*
X014925Y016125D01*
X014675Y016375D01*
X014675Y016875D01*
X014925Y017125D01*
X014675Y017375D01*
X014675Y017875D01*
X014925Y018125D01*
X014675Y018375D01*
X014675Y018875D01*
X014925Y019125D01*
X014675Y019375D01*
X014675Y019875D01*
X014925Y020125D01*
X014675Y020375D01*
X014675Y020875D01*
X014925Y021125D01*
X014675Y021375D01*
X014675Y021875D01*
X014925Y022125D01*
X015425Y022125D01*
X015675Y021875D01*
X015675Y021375D01*
X015425Y021125D01*
X015675Y020875D01*
X015675Y020375D01*
X015425Y020125D01*
X014925Y020125D01*
X015425Y020125D02*
X015675Y019875D01*
X015675Y019375D01*
X015425Y019125D01*
X015675Y018875D01*
X015675Y018375D01*
X015425Y018125D01*
X015675Y017875D01*
X015675Y017375D01*
X015425Y017125D01*
X014925Y017125D01*
X015425Y017125D02*
X015675Y016875D01*
X015675Y016375D01*
X015425Y016125D01*
X015675Y015875D01*
X015675Y015375D01*
X015425Y015125D01*
X015675Y014875D01*
X015675Y014375D01*
X015425Y014125D01*
X014925Y014125D01*
X015425Y014125D02*
X015675Y013875D01*
X015675Y013375D01*
X015425Y013125D01*
X015675Y012875D01*
X015675Y012375D01*
X015425Y012125D01*
X015925Y012125D02*
X016425Y012125D01*
X016425Y011125D02*
X016675Y010875D01*
X016675Y010375D01*
X016425Y010125D01*
X016675Y009875D01*
X016675Y009375D01*
X016425Y009125D01*
X016675Y008875D01*
X016675Y008375D01*
X016425Y008125D01*
X015925Y008125D01*
X015675Y008375D01*
X015675Y008875D01*
X015925Y009125D01*
X015675Y009375D01*
X015675Y009875D01*
X015925Y010125D01*
X015675Y010375D01*
X015675Y010875D01*
X015925Y011125D01*
X015675Y010875D02*
X015675Y010375D01*
X015425Y010125D01*
X015675Y009875D01*
X015675Y009375D01*
X015425Y009125D01*
X015675Y008875D01*
X015675Y008375D01*
X015425Y008125D01*
X014925Y008125D01*
X014675Y008375D01*
X014675Y008875D01*
X014925Y009125D01*
X014675Y009375D01*
X014675Y009875D01*
X014925Y010125D01*
X014675Y010375D01*
X014675Y010875D01*
X014925Y011125D01*
X015425Y011125D02*
X015675Y010875D01*
X015425Y010125D02*
X014925Y010125D01*
X014925Y009125D02*
X015425Y009125D01*
X015925Y009125D02*
X016425Y009125D01*
X016425Y010125D02*
X015925Y010125D01*
X015925Y008125D02*
X015675Y007875D01*
X015675Y007375D01*
X015925Y007125D01*
X015675Y006875D01*
X015675Y006375D01*
X015925Y006125D01*
X015675Y005875D01*
X015675Y005375D01*
X015925Y005125D01*
X015675Y004875D01*
X015675Y004375D01*
X015925Y004125D01*
X016425Y004125D01*
X016675Y004375D01*
X016675Y004875D01*
X016425Y005125D01*
X015925Y005125D01*
X015675Y004875D02*
X015675Y004375D01*
X015425Y004125D01*
X015675Y003875D01*
X015675Y003375D01*
X015425Y003125D01*
X015675Y002875D01*
X015675Y002375D01*
X015425Y002125D01*
X014925Y002125D01*
X014675Y002375D01*
X014675Y002875D01*
X014925Y003125D01*
X014675Y003375D01*
X014675Y003875D01*
X014925Y004125D01*
X014675Y004375D01*
X014675Y004875D01*
X014925Y005125D01*
X014675Y005375D01*
X014675Y005875D01*
X014925Y006125D01*
X014675Y006375D01*
X014675Y006875D01*
X014925Y007125D01*
X014675Y007375D01*
X014675Y007875D01*
X014925Y008125D01*
X015425Y008125D02*
X015675Y007875D01*
X015675Y007375D01*
X015425Y007125D01*
X015675Y006875D01*
X015675Y006375D01*
X015425Y006125D01*
X015675Y005875D01*
X015675Y005375D01*
X015425Y005125D01*
X014925Y005125D01*
X015425Y005125D02*
X015675Y004875D01*
X015425Y004125D02*
X014925Y004125D01*
X014925Y003125D02*
X015425Y003125D01*
X016425Y005125D02*
X016675Y005375D01*
X016675Y005875D01*
X016425Y006125D01*
X015925Y006125D01*
X015425Y006125D02*
X014925Y006125D01*
X014925Y007125D02*
X015425Y007125D01*
X015925Y007125D02*
X016425Y007125D01*
X016675Y006875D01*
X016675Y006375D01*
X016425Y006125D01*
X016425Y007125D02*
X016675Y007375D01*
X016675Y007875D01*
X016425Y008125D01*
X017175Y003625D02*
X017177Y003688D01*
X017183Y003750D01*
X017193Y003812D01*
X017206Y003874D01*
X017224Y003934D01*
X017245Y003993D01*
X017270Y004051D01*
X017299Y004107D01*
X017331Y004161D01*
X017366Y004213D01*
X017404Y004262D01*
X017446Y004310D01*
X017490Y004354D01*
X017538Y004396D01*
X017587Y004434D01*
X017639Y004469D01*
X017693Y004501D01*
X017749Y004530D01*
X017807Y004555D01*
X017866Y004576D01*
X017926Y004594D01*
X017988Y004607D01*
X018050Y004617D01*
X018112Y004623D01*
X018175Y004625D01*
X018238Y004623D01*
X018300Y004617D01*
X018362Y004607D01*
X018424Y004594D01*
X018484Y004576D01*
X018543Y004555D01*
X018601Y004530D01*
X018657Y004501D01*
X018711Y004469D01*
X018763Y004434D01*
X018812Y004396D01*
X018860Y004354D01*
X018904Y004310D01*
X018946Y004262D01*
X018984Y004213D01*
X019019Y004161D01*
X019051Y004107D01*
X019080Y004051D01*
X019105Y003993D01*
X019126Y003934D01*
X019144Y003874D01*
X019157Y003812D01*
X019167Y003750D01*
X019173Y003688D01*
X019175Y003625D01*
X019173Y003562D01*
X019167Y003500D01*
X019157Y003438D01*
X019144Y003376D01*
X019126Y003316D01*
X019105Y003257D01*
X019080Y003199D01*
X019051Y003143D01*
X019019Y003089D01*
X018984Y003037D01*
X018946Y002988D01*
X018904Y002940D01*
X018860Y002896D01*
X018812Y002854D01*
X018763Y002816D01*
X018711Y002781D01*
X018657Y002749D01*
X018601Y002720D01*
X018543Y002695D01*
X018484Y002674D01*
X018424Y002656D01*
X018362Y002643D01*
X018300Y002633D01*
X018238Y002627D01*
X018175Y002625D01*
X018112Y002627D01*
X018050Y002633D01*
X017988Y002643D01*
X017926Y002656D01*
X017866Y002674D01*
X017807Y002695D01*
X017749Y002720D01*
X017693Y002749D01*
X017639Y002781D01*
X017587Y002816D01*
X017538Y002854D01*
X017490Y002896D01*
X017446Y002940D01*
X017404Y002988D01*
X017366Y003037D01*
X017331Y003089D01*
X017299Y003143D01*
X017270Y003199D01*
X017245Y003257D01*
X017224Y003316D01*
X017206Y003376D01*
X017193Y003438D01*
X017183Y003500D01*
X017177Y003562D01*
X017175Y003625D01*
X019675Y003375D02*
X019675Y002875D01*
X019925Y002625D01*
X020425Y002625D01*
X020675Y002875D01*
X020675Y003375D01*
X020425Y003625D01*
X019925Y003625D01*
X019675Y003375D01*
X019925Y003625D02*
X019675Y003875D01*
X019675Y004375D01*
X019925Y004625D01*
X019675Y004875D01*
X019675Y005375D01*
X019925Y005625D01*
X019675Y005875D01*
X019675Y006375D01*
X019925Y006625D01*
X019675Y006875D01*
X019675Y007375D01*
X019925Y007625D01*
X019675Y007875D01*
X019675Y008375D01*
X019925Y008625D01*
X019675Y008875D01*
X019675Y009375D01*
X019925Y009625D01*
X019675Y009875D01*
X019675Y010375D01*
X019925Y010625D01*
X020425Y010625D01*
X020675Y010375D01*
X020675Y009875D01*
X020425Y009625D01*
X020675Y009375D01*
X020675Y008875D01*
X020425Y008625D01*
X019925Y008625D01*
X020425Y008625D02*
X020675Y008375D01*
X020675Y007875D01*
X020425Y007625D01*
X020675Y007375D01*
X020675Y006875D01*
X020425Y006625D01*
X020675Y006375D01*
X020675Y005875D01*
X020425Y005625D01*
X019925Y005625D01*
X020425Y005625D02*
X020675Y005375D01*
X020675Y004875D01*
X020425Y004625D01*
X020675Y004375D01*
X020675Y003875D01*
X020425Y003625D01*
X020425Y004625D02*
X019925Y004625D01*
X019925Y006625D02*
X020425Y006625D01*
X020425Y007625D02*
X019925Y007625D01*
X019925Y009625D02*
X020425Y009625D01*
X020425Y011250D02*
X019925Y011250D01*
X019675Y011500D01*
X019675Y012000D01*
X019925Y012250D01*
X019675Y012500D01*
X019675Y013000D01*
X019925Y013250D01*
X019675Y013500D01*
X019675Y014000D01*
X019925Y014250D01*
X019675Y014500D01*
X019675Y015000D01*
X019925Y015250D01*
X019675Y015500D01*
X019675Y016000D01*
X019925Y016250D01*
X019675Y016500D01*
X019675Y017000D01*
X019925Y017250D01*
X019675Y017500D01*
X019675Y018000D01*
X019925Y018250D01*
X019675Y018500D01*
X019675Y019000D01*
X019925Y019250D01*
X020425Y019250D01*
X020675Y019000D01*
X020675Y018500D01*
X020425Y018250D01*
X020675Y018000D01*
X020675Y017500D01*
X020425Y017250D01*
X019925Y017250D01*
X019675Y017375D02*
X019675Y017875D01*
X019425Y018125D01*
X019675Y018375D01*
X019675Y018875D01*
X019425Y019125D01*
X018925Y019125D01*
X018675Y018875D01*
X018675Y018375D01*
X018925Y018125D01*
X019425Y018125D01*
X018925Y018125D02*
X018675Y017875D01*
X018675Y017375D01*
X018925Y017125D01*
X019425Y017125D01*
X019675Y017375D01*
X019425Y017125D02*
X019675Y016875D01*
X019675Y016375D01*
X019425Y016125D01*
X019675Y015875D01*
X019675Y015375D01*
X019425Y015125D01*
X019675Y014875D01*
X019675Y014375D01*
X019425Y014125D01*
X018925Y014125D01*
X018675Y014375D01*
X018675Y014875D01*
X018925Y015125D01*
X018675Y015375D01*
X018675Y015875D01*
X018925Y016125D01*
X019425Y016125D01*
X018925Y016125D02*
X018675Y016375D01*
X018675Y016875D01*
X018925Y017125D01*
X018675Y016875D02*
X018675Y016375D01*
X018425Y016125D01*
X018675Y015875D01*
X018675Y015375D01*
X018425Y015125D01*
X018675Y014875D01*
X018675Y014375D01*
X018425Y014125D01*
X017925Y014125D01*
X017675Y014375D01*
X017675Y014875D01*
X017425Y015125D01*
X017675Y015375D01*
X017675Y015875D01*
X017425Y016125D01*
X016925Y016125D01*
X016675Y015875D01*
X016675Y015375D01*
X016925Y015125D01*
X017425Y015125D01*
X017675Y014875D02*
X017675Y014375D01*
X017425Y014125D01*
X016925Y014125D01*
X016675Y014375D01*
X016675Y014875D01*
X016925Y015125D01*
X017675Y015375D02*
X017675Y015875D01*
X017925Y016125D01*
X017675Y016375D01*
X017425Y016125D01*
X017675Y016375D02*
X017675Y016875D01*
X017425Y017125D01*
X017675Y017375D01*
X017675Y017875D01*
X017425Y018125D01*
X017675Y018375D01*
X017675Y018875D01*
X017425Y019125D01*
X016925Y019125D01*
X016675Y018875D01*
X016675Y018375D01*
X016925Y018125D01*
X017425Y018125D01*
X017675Y017875D02*
X017925Y018125D01*
X017675Y018375D01*
X017675Y018875D01*
X017925Y019125D01*
X017675Y019375D01*
X017425Y019125D01*
X017675Y019375D02*
X017675Y019875D01*
X017425Y020125D01*
X017675Y020375D01*
X017675Y020875D01*
X017425Y021125D01*
X017675Y021375D01*
X017675Y021875D01*
X017425Y022125D01*
X016925Y022125D01*
X016675Y021875D01*
X016675Y021375D01*
X016925Y021125D01*
X017425Y021125D01*
X017675Y021375D02*
X017675Y021875D01*
X017925Y022125D01*
X018425Y022125D01*
X018675Y021875D01*
X018925Y022125D01*
X019425Y022125D01*
X019675Y021875D01*
X019675Y021375D01*
X019425Y021125D01*
X019675Y020875D01*
X019675Y020375D01*
X019425Y020125D01*
X019675Y019875D01*
X019675Y019375D01*
X019425Y019125D01*
X018925Y019125D02*
X018675Y019375D01*
X018675Y019875D01*
X018925Y020125D01*
X018675Y020375D01*
X018675Y020875D01*
X018925Y021125D01*
X018675Y021375D01*
X018675Y021875D01*
X018675Y021375D01*
X018425Y021125D01*
X018675Y020875D01*
X018675Y020375D01*
X018425Y020125D01*
X017925Y020125D01*
X017675Y020375D01*
X017675Y020875D01*
X017925Y021125D01*
X017675Y021375D01*
X017925Y021125D02*
X018425Y021125D01*
X018925Y021125D02*
X019425Y021125D01*
X019425Y020125D02*
X018925Y020125D01*
X018675Y019875D02*
X018675Y019375D01*
X018425Y019125D01*
X018675Y018875D01*
X018675Y018375D01*
X018425Y018125D01*
X018675Y017875D01*
X018675Y017375D01*
X018425Y017125D01*
X017925Y017125D01*
X017675Y017375D01*
X017675Y017875D01*
X017925Y018125D02*
X018425Y018125D01*
X018425Y017125D02*
X018675Y016875D01*
X018425Y016125D02*
X017925Y016125D01*
X017675Y016375D02*
X017675Y016875D01*
X017925Y017125D01*
X017425Y017125D02*
X016925Y017125D01*
X016675Y017375D01*
X016675Y017875D01*
X016925Y018125D01*
X016925Y017125D02*
X016675Y016875D01*
X016675Y016375D01*
X016925Y016125D01*
X017675Y015375D02*
X017925Y015125D01*
X017675Y014875D01*
X017925Y015125D02*
X018425Y015125D01*
X018925Y015125D02*
X019425Y015125D01*
X019925Y015250D02*
X020425Y015250D01*
X020675Y015000D01*
X020675Y014500D01*
X020425Y014250D01*
X019925Y014250D01*
X020425Y014250D02*
X020675Y014000D01*
X020675Y013500D01*
X020425Y013250D01*
X020675Y013000D01*
X020675Y012500D01*
X020425Y012250D01*
X020675Y012000D01*
X020675Y011500D01*
X020425Y011250D01*
X020425Y012250D02*
X019925Y012250D01*
X019925Y013250D02*
X020425Y013250D01*
X020425Y015250D02*
X020675Y015500D01*
X020675Y016000D01*
X020425Y016250D01*
X019925Y016250D01*
X020425Y016250D02*
X020675Y016500D01*
X020675Y017000D01*
X020425Y017250D01*
X020425Y018250D02*
X019925Y018250D01*
X018675Y019875D02*
X018425Y020125D01*
X017925Y020125D02*
X017675Y019875D01*
X017675Y019375D01*
X017925Y019125D02*
X018425Y019125D01*
X017425Y020125D02*
X016925Y020125D01*
X016675Y020375D01*
X016675Y020875D01*
X016925Y021125D01*
X016925Y020125D02*
X016675Y019875D01*
X016675Y019375D01*
X016925Y019125D01*
X015425Y019125D02*
X014925Y019125D01*
X014925Y018125D02*
X015425Y018125D01*
X015425Y016125D02*
X014925Y016125D01*
X014925Y015125D02*
X015425Y015125D01*
X015425Y013125D02*
X014925Y013125D01*
X014925Y021125D02*
X015425Y021125D01*
X004675Y019875D02*
X004675Y019375D01*
X004425Y019125D01*
X004675Y019875D02*
X004425Y020125D01*
X004425Y021125D02*
X003925Y021125D01*
D14*
X003950Y020990D02*
X003950Y020690D01*
X004175Y020690D01*
X004100Y020840D01*
X004100Y020915D01*
X004175Y020990D01*
X004325Y020990D01*
X004400Y020915D01*
X004400Y020765D01*
X004325Y020690D01*
X004175Y020529D02*
X004250Y020454D01*
X004250Y020229D01*
X004400Y020229D02*
X003950Y020229D01*
X003950Y020454D01*
X004025Y020529D01*
X004175Y020529D01*
X003950Y020069D02*
X003950Y019919D01*
X003950Y019994D02*
X004325Y019994D01*
X004400Y019919D01*
X004400Y019844D01*
X004325Y019769D01*
X005925Y020125D02*
X008925Y020125D01*
X008925Y021125D01*
X005925Y021125D01*
X006050Y021250D02*
X006050Y022000D01*
X008800Y022000D01*
X008800Y021250D01*
X006050Y021250D01*
X006050Y021000D02*
X006050Y020250D01*
X008800Y020250D01*
X008800Y021000D01*
X006050Y021000D01*
X006050Y020000D02*
X006050Y019250D01*
X008800Y019250D01*
X008800Y020000D01*
X006050Y020000D01*
X005925Y019125D02*
X008925Y019125D01*
X008925Y020125D01*
X008925Y019125D02*
X008925Y018250D01*
X010425Y018250D01*
X010425Y019125D01*
X013425Y019125D01*
X013425Y020125D01*
X010425Y020125D01*
X010425Y019125D01*
X010550Y019000D02*
X013300Y019000D01*
X013300Y018250D01*
X010550Y018250D01*
X010550Y019000D01*
X010550Y019250D02*
X010550Y020000D01*
X013300Y020000D01*
X013300Y019250D01*
X010550Y019250D01*
X010425Y020125D02*
X010425Y021125D01*
X013425Y021125D01*
X013425Y022125D01*
X010425Y022125D01*
X010425Y021125D01*
X010550Y021250D02*
X013300Y021250D01*
X013300Y022000D01*
X010550Y022000D01*
X010550Y021250D01*
X010550Y021000D02*
X013300Y021000D01*
X013300Y020250D01*
X010550Y020250D01*
X010550Y021000D01*
X008925Y021125D02*
X008925Y022125D01*
X005925Y022125D01*
X005925Y002125D01*
X008925Y002125D01*
X008925Y003125D01*
X005925Y003125D01*
X006050Y003250D02*
X006050Y004000D01*
X008800Y004000D01*
X008800Y003250D01*
X006050Y003250D01*
X006050Y003000D02*
X006050Y002250D01*
X008800Y002250D01*
X008800Y003000D01*
X006050Y003000D01*
X005800Y002000D02*
X013550Y002000D01*
X013550Y022250D01*
X005800Y022250D01*
X005800Y002000D01*
X005050Y000925D02*
X005052Y000870D01*
X005057Y000816D01*
X005067Y000762D01*
X005080Y000709D01*
X005096Y000657D01*
X005116Y000606D01*
X005140Y000557D01*
X005166Y000509D01*
X005196Y000464D01*
X005229Y000420D01*
X005265Y000379D01*
X005304Y000340D01*
X005345Y000304D01*
X005389Y000271D01*
X005434Y000241D01*
X005482Y000215D01*
X005531Y000191D01*
X005582Y000171D01*
X005634Y000155D01*
X005687Y000142D01*
X005741Y000132D01*
X005795Y000127D01*
X005850Y000125D01*
X013675Y000125D01*
X013724Y000127D01*
X013773Y000133D01*
X013821Y000142D01*
X013868Y000156D01*
X013914Y000173D01*
X013959Y000193D01*
X014002Y000217D01*
X014042Y000244D01*
X014081Y000275D01*
X014117Y000308D01*
X014150Y000344D01*
X014181Y000383D01*
X014208Y000423D01*
X014232Y000466D01*
X014252Y000511D01*
X014269Y000557D01*
X014283Y000604D01*
X014292Y000652D01*
X014298Y000701D01*
X014300Y000750D01*
X014300Y025235D01*
X014298Y025278D01*
X014293Y025320D01*
X014284Y025361D01*
X014272Y025402D01*
X014257Y025442D01*
X014238Y025480D01*
X014216Y025517D01*
X014191Y025551D01*
X014164Y025584D01*
X014134Y025614D01*
X014101Y025641D01*
X014067Y025666D01*
X014030Y025688D01*
X013992Y025707D01*
X013952Y025722D01*
X013911Y025734D01*
X013870Y025743D01*
X013828Y025748D01*
X013785Y025750D01*
X006675Y025750D01*
X006675Y026250D01*
X006675Y025750D02*
X006675Y025137D01*
X006675Y024744D02*
X006675Y024131D01*
X006675Y023738D02*
X006675Y023125D01*
X006175Y022625D02*
X006131Y022627D01*
X006088Y022633D01*
X006046Y022642D01*
X006004Y022655D01*
X005964Y022672D01*
X005925Y022692D01*
X005888Y022715D01*
X005854Y022742D01*
X005821Y022771D01*
X005792Y022804D01*
X005765Y022838D01*
X005742Y022875D01*
X005722Y022914D01*
X005705Y022954D01*
X005692Y022996D01*
X005683Y023038D01*
X005677Y023081D01*
X005675Y023125D01*
X005675Y023738D01*
X005675Y024131D02*
X005675Y024744D01*
X005050Y025125D02*
X005052Y025174D01*
X005058Y025223D01*
X005067Y025271D01*
X005081Y025318D01*
X005098Y025364D01*
X005118Y025409D01*
X005142Y025452D01*
X005169Y025492D01*
X005200Y025531D01*
X005233Y025567D01*
X005269Y025600D01*
X005308Y025631D01*
X005348Y025658D01*
X005391Y025682D01*
X005436Y025702D01*
X005482Y025719D01*
X005529Y025733D01*
X005577Y025742D01*
X005626Y025748D01*
X005675Y025750D01*
X005675Y026250D01*
X005675Y025750D02*
X005675Y025137D01*
X005675Y025750D02*
X006675Y025750D01*
X006675Y026250D02*
X006677Y026294D01*
X006683Y026337D01*
X006692Y026379D01*
X006705Y026421D01*
X006722Y026461D01*
X006742Y026500D01*
X006765Y026537D01*
X006792Y026571D01*
X006821Y026604D01*
X006854Y026633D01*
X006888Y026660D01*
X006925Y026683D01*
X006964Y026703D01*
X007004Y026720D01*
X007046Y026733D01*
X007088Y026742D01*
X007131Y026748D01*
X007175Y026750D01*
X007175Y028625D01*
X007173Y028674D01*
X007167Y028723D01*
X007158Y028771D01*
X007144Y028818D01*
X007127Y028864D01*
X007107Y028909D01*
X007083Y028952D01*
X007056Y028992D01*
X007025Y029031D01*
X006992Y029067D01*
X006956Y029100D01*
X006917Y029131D01*
X006877Y029158D01*
X006834Y029182D01*
X006789Y029202D01*
X006743Y029219D01*
X006696Y029233D01*
X006648Y029242D01*
X006599Y029248D01*
X006550Y029250D01*
X005800Y029250D01*
X005751Y029248D01*
X005702Y029242D01*
X005654Y029233D01*
X005607Y029219D01*
X005561Y029202D01*
X005516Y029182D01*
X005473Y029158D01*
X005433Y029131D01*
X005394Y029100D01*
X005358Y029067D01*
X005325Y029031D01*
X005294Y028992D01*
X005267Y028952D01*
X005243Y028909D01*
X005223Y028864D01*
X005206Y028818D01*
X005192Y028771D01*
X005183Y028723D01*
X005177Y028674D01*
X005175Y028625D01*
X005175Y026750D01*
X005550Y026750D02*
X006675Y026750D01*
X005675Y026250D02*
X005673Y026294D01*
X005667Y026337D01*
X005658Y026379D01*
X005645Y026421D01*
X005628Y026461D01*
X005608Y026500D01*
X005585Y026537D01*
X005558Y026571D01*
X005529Y026604D01*
X005496Y026633D01*
X005462Y026660D01*
X005425Y026683D01*
X005386Y026703D01*
X005346Y026720D01*
X005304Y026733D01*
X005262Y026742D01*
X005219Y026748D01*
X005175Y026750D01*
X005050Y025125D02*
X005050Y000925D01*
X005925Y004125D02*
X008925Y004125D01*
X008925Y005125D01*
X005925Y005125D01*
X006050Y005250D02*
X006050Y006000D01*
X008800Y006000D01*
X008800Y005250D01*
X006050Y005250D01*
X006050Y005000D02*
X006050Y004250D01*
X008800Y004250D01*
X008800Y005000D01*
X006050Y005000D01*
X006050Y006250D02*
X006050Y007000D01*
X008800Y007000D01*
X008800Y006250D01*
X006050Y006250D01*
X005925Y007125D02*
X008925Y007125D01*
X008925Y008125D01*
X005925Y008125D01*
X006050Y008250D02*
X006050Y009000D01*
X008800Y009000D01*
X008800Y008250D01*
X006050Y008250D01*
X006050Y008000D02*
X006050Y007250D01*
X008800Y007250D01*
X008800Y008000D01*
X006050Y008000D01*
X005925Y009125D02*
X008925Y009125D01*
X008925Y010125D01*
X005925Y010125D01*
X006050Y010000D02*
X006050Y009250D01*
X008800Y009250D01*
X008800Y010000D01*
X006050Y010000D01*
X006050Y010250D02*
X006050Y011000D01*
X008800Y011000D01*
X008800Y010250D01*
X006050Y010250D01*
X005925Y011125D02*
X008925Y011125D01*
X008925Y012125D01*
X005925Y012125D01*
X006050Y012000D02*
X006050Y011250D01*
X008800Y011250D01*
X008800Y012000D01*
X006050Y012000D01*
X006050Y012250D02*
X006050Y013000D01*
X008800Y013000D01*
X008800Y012250D01*
X006050Y012250D01*
X005925Y013125D02*
X008925Y013125D01*
X008925Y014125D01*
X005925Y014125D01*
X006050Y014000D02*
X006050Y013250D01*
X008800Y013250D01*
X008800Y014000D01*
X006050Y014000D01*
X006050Y014250D02*
X006050Y015000D01*
X008800Y015000D01*
X008800Y014250D01*
X006050Y014250D01*
X005925Y015125D02*
X008925Y015125D01*
X008925Y016125D01*
X005925Y016125D01*
X006050Y016250D02*
X006050Y017000D01*
X008800Y017000D01*
X008800Y016250D01*
X006050Y016250D01*
X006050Y016000D02*
X006050Y015250D01*
X008800Y015250D01*
X008800Y016000D01*
X006050Y016000D01*
X005925Y017125D02*
X008925Y017125D01*
X008925Y018000D01*
X010425Y018000D01*
X010425Y017125D01*
X013425Y017125D01*
X013425Y018125D01*
X013425Y019125D01*
X013425Y020125D02*
X013425Y021125D01*
X013300Y018000D02*
X010550Y018000D01*
X010550Y017250D01*
X013300Y017250D01*
X013300Y018000D01*
X013425Y017125D02*
X013425Y016125D01*
X010425Y016125D01*
X010425Y015125D01*
X013425Y015125D01*
X013425Y016125D01*
X013300Y016000D02*
X013300Y015250D01*
X010550Y015250D01*
X010550Y016000D01*
X013300Y016000D01*
X013300Y016250D02*
X010550Y016250D01*
X010550Y017000D01*
X013300Y017000D01*
X013300Y016250D01*
X013425Y015125D02*
X013425Y014125D01*
X010425Y014125D01*
X010425Y013125D01*
X013425Y013125D01*
X013425Y014125D01*
X013300Y014250D02*
X013300Y015000D01*
X010550Y015000D01*
X010550Y014250D01*
X013300Y014250D01*
X013300Y014000D02*
X013300Y013250D01*
X010550Y013250D01*
X010550Y014000D01*
X013300Y014000D01*
X013425Y013125D02*
X013425Y012125D01*
X010425Y012125D01*
X010425Y011125D01*
X013425Y011125D01*
X013425Y012125D01*
X013300Y012250D02*
X013300Y013000D01*
X010550Y013000D01*
X010550Y012250D01*
X013300Y012250D01*
X013300Y012000D02*
X013300Y011250D01*
X010550Y011250D01*
X010550Y012000D01*
X013300Y012000D01*
X013425Y011125D02*
X013425Y010125D01*
X010425Y010125D01*
X010425Y009125D01*
X013425Y009125D01*
X013425Y010125D01*
X013300Y010250D02*
X013300Y011000D01*
X010550Y011000D01*
X010550Y010250D01*
X013300Y010250D01*
X013300Y010000D02*
X013300Y009250D01*
X010550Y009250D01*
X010550Y010000D01*
X013300Y010000D01*
X013425Y009125D02*
X013425Y008125D01*
X010425Y008125D01*
X010425Y007125D01*
X013425Y007125D01*
X013425Y008125D01*
X013300Y008000D02*
X013300Y007250D01*
X010550Y007250D01*
X010550Y008000D01*
X013300Y008000D01*
X013300Y008250D02*
X013300Y009000D01*
X010550Y009000D01*
X010550Y008250D01*
X013300Y008250D01*
X013425Y007125D02*
X013425Y006125D01*
X013425Y005125D01*
X010425Y005125D01*
X010425Y004125D01*
X013425Y004125D01*
X013425Y005125D01*
X013300Y005250D02*
X013300Y006000D01*
X010550Y006000D01*
X010550Y005250D01*
X013300Y005250D01*
X013300Y005000D02*
X013300Y004250D01*
X010550Y004250D01*
X010550Y005000D01*
X013300Y005000D01*
X013425Y004125D02*
X013425Y003125D01*
X010425Y003125D01*
X010425Y002125D01*
X013425Y002125D01*
X013425Y003125D01*
X013300Y003000D02*
X013300Y002250D01*
X010550Y002250D01*
X010550Y003000D01*
X013300Y003000D01*
X013300Y003250D02*
X013300Y004000D01*
X010550Y004000D01*
X010550Y003250D01*
X013300Y003250D01*
X013300Y006250D02*
X013300Y007000D01*
X010550Y007000D01*
X010550Y006250D01*
X013300Y006250D01*
X010425Y006250D02*
X008925Y006250D01*
X008925Y007125D01*
X008925Y008125D02*
X008925Y009125D01*
X008925Y010125D02*
X008925Y011125D01*
X008925Y012125D02*
X008925Y013125D01*
X009175Y013125D02*
X009175Y008125D01*
X010175Y008125D01*
X010175Y013125D01*
X009175Y013125D01*
X008925Y014125D02*
X008925Y015125D01*
X008925Y016125D02*
X008925Y017125D01*
X008800Y017250D02*
X008800Y018000D01*
X006050Y018000D01*
X006050Y017250D01*
X008800Y017250D01*
X008800Y018250D02*
X008800Y019000D01*
X006050Y019000D01*
X006050Y018250D01*
X008800Y018250D01*
X010425Y017125D02*
X010425Y016125D01*
X010425Y015125D02*
X010425Y014125D01*
X010425Y013125D02*
X010425Y012125D01*
X010425Y011125D02*
X010425Y010125D01*
X010425Y009125D02*
X010425Y008125D01*
X010425Y007125D02*
X010425Y006250D01*
X010425Y006000D02*
X008925Y006000D01*
X008925Y005125D01*
X008925Y004125D02*
X008925Y003125D01*
X010425Y003125D02*
X010425Y004125D01*
X010425Y005125D02*
X010425Y006000D01*
X009175Y001125D02*
X009177Y001169D01*
X009183Y001213D01*
X009193Y001256D01*
X009206Y001298D01*
X009223Y001339D01*
X009244Y001378D01*
X009268Y001415D01*
X009295Y001450D01*
X009325Y001482D01*
X009358Y001512D01*
X009394Y001538D01*
X009431Y001562D01*
X009471Y001581D01*
X009512Y001598D01*
X009555Y001610D01*
X009598Y001619D01*
X009642Y001624D01*
X009686Y001625D01*
X009730Y001622D01*
X009774Y001615D01*
X009817Y001604D01*
X009859Y001590D01*
X009899Y001572D01*
X009938Y001550D01*
X009974Y001526D01*
X010008Y001498D01*
X010040Y001467D01*
X010069Y001433D01*
X010095Y001397D01*
X010117Y001359D01*
X010136Y001319D01*
X010151Y001277D01*
X010163Y001235D01*
X010171Y001191D01*
X010175Y001147D01*
X010175Y001103D01*
X010171Y001059D01*
X010163Y001015D01*
X010151Y000973D01*
X010136Y000931D01*
X010117Y000891D01*
X010095Y000853D01*
X010069Y000817D01*
X010040Y000783D01*
X010008Y000752D01*
X009974Y000724D01*
X009938Y000700D01*
X009899Y000678D01*
X009859Y000660D01*
X009817Y000646D01*
X009774Y000635D01*
X009730Y000628D01*
X009686Y000625D01*
X009642Y000626D01*
X009598Y000631D01*
X009555Y000640D01*
X009512Y000652D01*
X009471Y000669D01*
X009431Y000688D01*
X009394Y000712D01*
X009358Y000738D01*
X009325Y000768D01*
X009295Y000800D01*
X009268Y000835D01*
X009244Y000872D01*
X009223Y000911D01*
X009206Y000952D01*
X009193Y000994D01*
X009183Y001037D01*
X009177Y001081D01*
X009175Y001125D01*
X017980Y014270D02*
X017980Y014420D01*
X017980Y014345D02*
X018355Y014345D01*
X018430Y014270D01*
X018430Y014195D01*
X018355Y014120D01*
X018430Y014580D02*
X017980Y014580D01*
X017980Y014806D01*
X018055Y014881D01*
X018205Y014881D01*
X018280Y014806D01*
X018280Y014580D01*
X018355Y015041D02*
X018430Y015116D01*
X018430Y015266D01*
X018355Y015341D01*
X018055Y015341D01*
X017980Y015266D01*
X017980Y015116D01*
X018055Y015041D01*
X018130Y015041D01*
X018205Y015116D01*
X018205Y015341D01*
X009175Y024750D02*
X009177Y024794D01*
X009183Y024838D01*
X009193Y024881D01*
X009206Y024923D01*
X009223Y024964D01*
X009244Y025003D01*
X009268Y025040D01*
X009295Y025075D01*
X009325Y025107D01*
X009358Y025137D01*
X009394Y025163D01*
X009431Y025187D01*
X009471Y025206D01*
X009512Y025223D01*
X009555Y025235D01*
X009598Y025244D01*
X009642Y025249D01*
X009686Y025250D01*
X009730Y025247D01*
X009774Y025240D01*
X009817Y025229D01*
X009859Y025215D01*
X009899Y025197D01*
X009938Y025175D01*
X009974Y025151D01*
X010008Y025123D01*
X010040Y025092D01*
X010069Y025058D01*
X010095Y025022D01*
X010117Y024984D01*
X010136Y024944D01*
X010151Y024902D01*
X010163Y024860D01*
X010171Y024816D01*
X010175Y024772D01*
X010175Y024728D01*
X010171Y024684D01*
X010163Y024640D01*
X010151Y024598D01*
X010136Y024556D01*
X010117Y024516D01*
X010095Y024478D01*
X010069Y024442D01*
X010040Y024408D01*
X010008Y024377D01*
X009974Y024349D01*
X009938Y024325D01*
X009899Y024303D01*
X009859Y024285D01*
X009817Y024271D01*
X009774Y024260D01*
X009730Y024253D01*
X009686Y024250D01*
X009642Y024251D01*
X009598Y024256D01*
X009555Y024265D01*
X009512Y024277D01*
X009471Y024294D01*
X009431Y024313D01*
X009394Y024337D01*
X009358Y024363D01*
X009325Y024393D01*
X009295Y024425D01*
X009268Y024460D01*
X009244Y024497D01*
X009223Y024536D01*
X009206Y024577D01*
X009193Y024619D01*
X009183Y024662D01*
X009177Y024706D01*
X009175Y024750D01*
X006675Y023125D02*
X006673Y023081D01*
X006667Y023038D01*
X006658Y022996D01*
X006645Y022954D01*
X006628Y022914D01*
X006608Y022875D01*
X006585Y022838D01*
X006558Y022804D01*
X006529Y022771D01*
X006496Y022742D01*
X006462Y022715D01*
X006425Y022692D01*
X006386Y022672D01*
X006346Y022655D01*
X006304Y022642D01*
X006262Y022633D01*
X006219Y022627D01*
X006175Y022625D01*
D15*
X014984Y023816D02*
X014984Y024026D01*
X014984Y023921D02*
X015615Y023921D01*
X015615Y023816D02*
X015615Y024026D01*
X015510Y024246D02*
X015615Y024351D01*
X015615Y024561D01*
X015510Y024666D01*
X015615Y024890D02*
X015195Y025311D01*
X015090Y025311D01*
X014984Y025206D01*
X014984Y024996D01*
X015090Y024890D01*
X015090Y024666D02*
X014984Y024561D01*
X014984Y024351D01*
X015090Y024246D01*
X015510Y024246D01*
X015615Y024890D02*
X015615Y025311D01*
D16*
X017425Y004625D02*
X018925Y004625D01*
D17*
X018979Y004582D01*
X019031Y004536D01*
X019080Y004487D01*
X019127Y004435D01*
X019170Y004381D01*
X019211Y004325D01*
X019248Y004266D01*
X019282Y004206D01*
X019312Y004143D01*
X019339Y004080D01*
X019363Y004014D01*
X019383Y003948D01*
X019399Y003880D01*
X019411Y003812D01*
X019419Y003743D01*
X019424Y003674D01*
X019425Y003604D01*
X019422Y003535D01*
X019415Y003466D01*
X019404Y003398D01*
X019390Y003330D01*
X019371Y003263D01*
X019349Y003197D01*
X019324Y003132D01*
X019295Y003069D01*
X019262Y003008D01*
X019226Y002949D01*
X019187Y002892D01*
X019145Y002836D01*
X019100Y002784D01*
X019052Y002734D01*
X019001Y002687D01*
X018947Y002642D01*
X018892Y002601D01*
X018834Y002563D01*
X018774Y002528D01*
X018712Y002496D01*
X018649Y002468D01*
X018584Y002444D01*
X018518Y002423D01*
X018450Y002406D01*
X018382Y002392D01*
X018313Y002383D01*
X018244Y002377D01*
X018175Y002375D01*
X018106Y002377D01*
X018037Y002383D01*
X017968Y002392D01*
X017900Y002406D01*
X017832Y002423D01*
X017766Y002444D01*
X017701Y002468D01*
X017638Y002496D01*
X017576Y002528D01*
X017516Y002563D01*
X017458Y002601D01*
X017403Y002642D01*
X017349Y002687D01*
X017298Y002734D01*
X017250Y002784D01*
X017205Y002836D01*
X017163Y002892D01*
X017124Y002949D01*
X017088Y003008D01*
X017055Y003069D01*
X017026Y003132D01*
X017001Y003197D01*
X016979Y003263D01*
X016960Y003330D01*
X016946Y003398D01*
X016935Y003466D01*
X016928Y003535D01*
X016925Y003604D01*
X016926Y003674D01*
X016931Y003743D01*
X016939Y003812D01*
X016951Y003880D01*
X016967Y003948D01*
X016987Y004014D01*
X017011Y004080D01*
X017038Y004143D01*
X017068Y004206D01*
X017102Y004266D01*
X017139Y004325D01*
X017180Y004381D01*
X017223Y004435D01*
X017270Y004487D01*
X017319Y004536D01*
X017371Y004582D01*
X017425Y004625D01*
M02*
