G75*
%MOIN*%
%OFA0B0*%
%FSLAX24Y24*%
%IPPOS*%
%LPD*%
%AMOC8*
5,1,8,0,0,1.08239X$1,22.5*
%
%ADD10C,0.0000*%
%ADD11C,0.0690*%
%ADD12C,0.0600*%
%ADD13R,0.0236X0.0866*%
%ADD14R,0.0433X0.0394*%
%ADD15R,0.0394X0.0433*%
%ADD16C,0.0480*%
D10*
X000175Y002125D02*
X000175Y023125D01*
X021175Y023125D01*
X021175Y002750D01*
X020550Y002125D01*
X016050Y002125D01*
X015050Y001125D01*
X002175Y001125D01*
X001175Y002125D01*
X000175Y002125D01*
D11*
X006675Y002625D03*
X006675Y003625D03*
X006675Y004625D03*
X006675Y005625D03*
X006675Y006625D03*
X006675Y007625D03*
X006675Y008625D03*
X006675Y009625D03*
X006675Y010625D03*
X006675Y011625D03*
X006675Y012625D03*
X006675Y013625D03*
X006675Y014625D03*
X006675Y015625D03*
X006675Y016625D03*
X006675Y017625D03*
X006675Y018625D03*
X006675Y019625D03*
X006675Y020625D03*
X006675Y021625D03*
X012675Y021625D03*
X012675Y020625D03*
X012675Y019625D03*
X012675Y018625D03*
X012675Y017625D03*
X012675Y016625D03*
X012675Y015625D03*
X012675Y014625D03*
X012675Y013625D03*
X012675Y012625D03*
X012675Y011625D03*
X012675Y010625D03*
X012675Y009625D03*
X012675Y008625D03*
X012675Y007625D03*
X012675Y006625D03*
X012675Y005625D03*
X012675Y004625D03*
X012675Y003625D03*
X012675Y002625D03*
D12*
X015175Y002625D03*
X015175Y003625D03*
X015175Y004625D03*
X015175Y005625D03*
X015175Y006625D03*
X015175Y007625D03*
X015175Y008625D03*
X015175Y009625D03*
X015175Y010625D03*
X015175Y011625D03*
X015175Y012625D03*
X015175Y013625D03*
X015175Y014625D03*
X015175Y015625D03*
X015175Y016625D03*
X015175Y017625D03*
X015175Y018625D03*
X015175Y019625D03*
X015175Y020625D03*
X015175Y021625D03*
X017175Y021625D03*
X017175Y020625D03*
X017175Y019625D03*
X017175Y018625D03*
X017175Y017625D03*
X017175Y016625D03*
X017175Y015625D03*
X017175Y014625D03*
X018175Y014625D03*
X018175Y015625D03*
X018175Y016625D03*
X018175Y017625D03*
X018175Y018625D03*
X018175Y019625D03*
X018175Y020625D03*
X018175Y021625D03*
X019175Y021625D03*
X019175Y020625D03*
X019175Y019625D03*
X019175Y018625D03*
X019175Y017625D03*
X019175Y016625D03*
X019175Y015625D03*
X019175Y014625D03*
X020175Y014750D03*
X020175Y015750D03*
X020175Y016750D03*
X020175Y017750D03*
X020175Y018750D03*
X020175Y013750D03*
X020175Y012750D03*
X020175Y011750D03*
X020175Y010125D03*
X020175Y009125D03*
X020175Y008125D03*
X020175Y007125D03*
X020175Y006125D03*
X020175Y005125D03*
X020175Y004125D03*
X020175Y003125D03*
X016175Y004625D03*
X016175Y005625D03*
X016175Y006625D03*
X016175Y007625D03*
X016175Y008625D03*
X016175Y009625D03*
X016175Y010625D03*
X016175Y011625D03*
X016175Y012625D03*
X004175Y012625D03*
X004175Y011625D03*
X004175Y010625D03*
X004175Y009625D03*
X004175Y008625D03*
X004175Y007625D03*
X004175Y006625D03*
X004175Y005625D03*
X004175Y004625D03*
X004175Y003625D03*
X004175Y002625D03*
X003175Y002625D03*
X003175Y003625D03*
X003175Y004625D03*
X003175Y005625D03*
X003175Y006625D03*
X003175Y007625D03*
X003175Y008625D03*
X003175Y009625D03*
X003175Y010625D03*
X003175Y011625D03*
X003175Y012625D03*
X003175Y013625D03*
X004175Y013625D03*
X004175Y014625D03*
X004175Y015625D03*
X004175Y016625D03*
X004175Y017625D03*
X004175Y018625D03*
X004175Y019625D03*
X004175Y020625D03*
X004175Y021625D03*
X003175Y020625D03*
X003175Y019625D03*
X003175Y018625D03*
X003175Y017625D03*
X003175Y016625D03*
X002175Y016625D03*
X002175Y017625D03*
X002175Y018625D03*
X002175Y019625D03*
X002175Y020625D03*
X001175Y015125D03*
X001175Y014125D03*
X001175Y013125D03*
X001175Y012125D03*
X001175Y011125D03*
X001175Y010125D03*
X001175Y008125D03*
X001175Y007125D03*
X001175Y006125D03*
X001175Y005125D03*
X001175Y004125D03*
X001175Y003125D03*
D13*
X008925Y012601D03*
X009425Y012601D03*
X009925Y012601D03*
X010425Y012601D03*
X010425Y014649D03*
X009925Y014649D03*
X009425Y014649D03*
X008925Y014649D03*
D14*
X009925Y015915D03*
X009925Y016585D03*
X008260Y018125D03*
X007590Y018125D03*
X007590Y019125D03*
X008260Y019125D03*
X010425Y011585D03*
X010425Y010915D03*
X017175Y003960D03*
X017175Y003290D03*
D15*
X011010Y003625D03*
X010340Y003625D03*
X010340Y004625D03*
X011010Y004625D03*
X011010Y005625D03*
X010340Y005625D03*
X009010Y005625D03*
X008340Y005625D03*
X008340Y004625D03*
X009010Y004625D03*
X009010Y003625D03*
X008340Y003625D03*
X008340Y002625D03*
X009010Y002625D03*
X010340Y002625D03*
X011010Y002625D03*
X009550Y010915D03*
X009550Y011585D03*
X008425Y011585D03*
X008425Y010915D03*
X001510Y016625D03*
X000840Y016625D03*
X000840Y017625D03*
X000840Y018625D03*
X000840Y019625D03*
X001510Y019625D03*
X001510Y018625D03*
X001510Y017625D03*
X001510Y020625D03*
X000840Y020625D03*
X015840Y020625D03*
X016510Y020625D03*
X016510Y021625D03*
X015840Y021625D03*
X015840Y019625D03*
X016510Y019625D03*
X016510Y018625D03*
X015840Y018625D03*
X015840Y017625D03*
X016510Y017625D03*
X016510Y016625D03*
X015840Y016625D03*
X015840Y015625D03*
X016510Y015625D03*
X016510Y014625D03*
X015840Y014625D03*
D16*
X018175Y004125D03*
X018175Y003125D03*
M02*
