%
M48
M72
T01C0.0130
T02C0.0320
T03C0.0400
T04C0.0460
%
T01
X3175Y1500
X5425Y3125
X5425Y4125
X5425Y5125
X5050Y5125
X5425Y6125
X5425Y7125
X5425Y8125
X5425Y9125
X5425Y10125
X5425Y11125
X5425Y12125
X5050Y13125
X5050Y14125
X3175Y14625
X2175Y14125
X2175Y15875
X5425Y20625
X5425Y21625
X2675Y21625
X1675Y21625
X1175Y22125
X7675Y16625
X7675Y15625
X7675Y14625
X7675Y13625
X7675Y12625
X8425Y10500
X9675Y9125
X8675Y8125
X8675Y6625
X7925Y5625
X7925Y4625
X7925Y3625
X7925Y2625
X7550Y1500
X9675Y2000
X9675Y3125
X9675Y5125
X10550Y6625
X11425Y5625
X12050Y5125
X11425Y4625
X11800Y4125
X11425Y3625
X11425Y2625
X13425Y3125
X13925Y3125
X13925Y1625
X16175Y3125
X16675Y4125
X17050Y5125
X17175Y6125
X17550Y7125
X18175Y7625
X17925Y8125
X17175Y8625
X16925Y9125
X17550Y9625
X17175Y10125
X17925Y10625
X17175Y11125
X16675Y12125
X16675Y13125
X15800Y13500
X14675Y13125
X14675Y12125
X14675Y11125
X14675Y10125
X14675Y9125
X14675Y8125
X14675Y7125
X14675Y6125
X16800Y7625
X18300Y9125
X19425Y10125
X20175Y10875
X19425Y12625
X18300Y11625
X18675Y6625
X19050Y5625
X18175Y4625
X19175Y3625
X13300Y13125
X14425Y15125
X14425Y16125
X14425Y17125
X14425Y18125
X14425Y19125
X14425Y20125
X14425Y21125
X13925Y22250
X11675Y22750
X10425Y21375
X9925Y22250
X10425Y19875
X9925Y18625
X10425Y17875
X11050Y15875
X11050Y14875
X10425Y14000
X9425Y13625
X10800Y12625
X11675Y12625
X9925Y11375
X10675Y10250
X10675Y8125
X8925Y15625
X12050Y17125
X20175Y19625
X20175Y20625
X20175Y21625
X20800Y22750
T02
X18175Y4125
X18175Y3125
T03
X1175Y3125
X1175Y4125
X1175Y5125
X1175Y6125
X1175Y7125
X1175Y8125
X1175Y10125
X1175Y11125
X1175Y12125
X1175Y13125
X1175Y14125
X1175Y15125
X2175Y16625
X2175Y17625
X2175Y18625
X2175Y19625
X2175Y20625
X3175Y20625
X3175Y19625
X3175Y18625
X3175Y17625
X3175Y16625
X4175Y16625
X4175Y15625
X4175Y14625
X4175Y13625
X4175Y12625
X4175Y11625
X4175Y10625
X4175Y9625
X4175Y8625
X4175Y7625
X4175Y6625
X4175Y5625
X4175Y4625
X4175Y3625
X4175Y2625
X3175Y2625
X3175Y3625
X3175Y4625
X3175Y5625
X3175Y6625
X3175Y7625
X3175Y8625
X3175Y9625
X3175Y10625
X3175Y11625
X3175Y12625
X3175Y13625
X4175Y17625
X4175Y18625
X4175Y19625
X4175Y20625
X4175Y21625
X15175Y21625
X15175Y20625
X15175Y19625
X15175Y18625
X15175Y17625
X15175Y16625
X15175Y15625
X15175Y14625
X15175Y13625
X15175Y12625
X15175Y11625
X15175Y10625
X15175Y9625
X15175Y8625
X15175Y7625
X15175Y6625
X15175Y5625
X15175Y4625
X15175Y3625
X15175Y2625
X16175Y4625
X16175Y5625
X16175Y6625
X16175Y7625
X16175Y8625
X16175Y9625
X16175Y10625
X16175Y11625
X16175Y12625
X17175Y14625
X17175Y15625
X17175Y16625
X17175Y17625
X17175Y18625
X17175Y19625
X17175Y20625
X17175Y21625
X18175Y21625
X18175Y20625
X18175Y19625
X18175Y18625
X18175Y17625
X18175Y16625
X18175Y15625
X18175Y14625
X19175Y14625
X19175Y15625
X19175Y16625
X19175Y17625
X19175Y18625
X19175Y19625
X19175Y20625
X19175Y21625
X20175Y18750
X20175Y17750
X20175Y16750
X20175Y15750
X20175Y14750
X20175Y13750
X20175Y12750
X20175Y11750
X20175Y10125
X20175Y9125
X20175Y8125
X20175Y7125
X20175Y6125
X20175Y5125
X20175Y4125
X20175Y3125
T04
X12675Y2625
X12675Y3625
X12675Y4625
X12675Y5625
X12675Y6625
X12675Y7625
X12675Y8625
X12675Y9625
X12675Y10625
X12675Y11625
X12675Y12625
X12675Y13625
X12675Y14625
X12675Y15625
X12675Y16625
X12675Y17625
X12675Y18625
X12675Y19625
X12675Y20625
X12675Y21625
X6675Y21625
X6675Y20625
X6675Y19625
X6675Y18625
X6675Y17625
X6675Y16625
X6675Y15625
X6675Y14625
X6675Y13625
X6675Y12625
X6675Y11625
X6675Y10625
X6675Y9625
X6675Y8625
X6675Y7625
X6675Y6625
X6675Y5625
X6675Y4625
X6675Y3625
X6675Y2625
M30
