G75*
%MOIN*%
%OFA0B0*%
%FSLAX24Y24*%
%IPPOS*%
%LPD*%
%AMOC8*
5,1,8,0,0,1.08239X$1,22.5*
%
%ADD10C,0.0000*%
%ADD11R,0.0236X0.0866*%
%ADD12R,0.0433X0.0394*%
%ADD13R,0.0394X0.0433*%
D10*
X000175Y002125D02*
X000175Y023125D01*
X021175Y023125D01*
X021175Y002750D01*
X020550Y002125D01*
X016050Y002125D01*
X015050Y001125D01*
X002175Y001125D01*
X001175Y002125D01*
X000175Y002125D01*
D11*
X008925Y012601D03*
X009425Y012601D03*
X009925Y012601D03*
X010425Y012601D03*
X010425Y014649D03*
X009925Y014649D03*
X009425Y014649D03*
X008925Y014649D03*
D12*
X009925Y015915D03*
X009925Y016585D03*
X008260Y018125D03*
X007590Y018125D03*
X007590Y019125D03*
X008260Y019125D03*
X010425Y011585D03*
X010425Y010915D03*
X017175Y003960D03*
X017175Y003290D03*
D13*
X011010Y003625D03*
X010340Y003625D03*
X010340Y004625D03*
X011010Y004625D03*
X011010Y005625D03*
X010340Y005625D03*
X009010Y005625D03*
X008340Y005625D03*
X008340Y004625D03*
X009010Y004625D03*
X009010Y003625D03*
X008340Y003625D03*
X008340Y002625D03*
X009010Y002625D03*
X010340Y002625D03*
X011010Y002625D03*
X009550Y010915D03*
X009550Y011585D03*
X008425Y011585D03*
X008425Y010915D03*
X001510Y016625D03*
X000840Y016625D03*
X000840Y017625D03*
X000840Y018625D03*
X000840Y019625D03*
X001510Y019625D03*
X001510Y018625D03*
X001510Y017625D03*
X001510Y020625D03*
X000840Y020625D03*
X015840Y020625D03*
X016510Y020625D03*
X016510Y021625D03*
X015840Y021625D03*
X015840Y019625D03*
X016510Y019625D03*
X016510Y018625D03*
X015840Y018625D03*
X015840Y017625D03*
X016510Y017625D03*
X016510Y016625D03*
X015840Y016625D03*
X015840Y015625D03*
X016510Y015625D03*
X016510Y014625D03*
X015840Y014625D03*
M02*
